<svg xmlns="http://www.w3.org/2000/svg" xmlns:xlink="http://www.w3.org/1999/xlink" width="1024" zoomAndPan="magnify" viewBox="0 0 375 375.00002" height="1024" preserveAspectRatio="xMidYMid meet" version="1.0"><defs><clipPath id="afb50f6175"><path d="M 270 233 L 374.5 233 L 374.5 374.003906 L 270 374.003906 Z M 270 233 " clip-rule="nonzero"/></clipPath><clipPath id="dd9c9f3331"><path d="M 0.460938 0.730469 L 104.5 0.730469 L 104.5 141.003906 L 0.460938 141.003906 Z M 0.460938 0.730469 " clip-rule="nonzero"/></clipPath><clipPath id="561547277a"><path d="M 109.660156 0.730469 C 49.351562 0.730469 0.460938 49.621094 0.460938 109.933594 C 0.460938 170.242188 49.351562 219.132812 109.660156 219.132812 C 169.972656 219.132812 218.863281 170.242188 218.863281 109.933594 C 218.863281 49.621094 169.972656 0.730469 109.660156 0.730469 Z M 109.660156 0.730469 " clip-rule="nonzero"/></clipPath><clipPath id="3166d81531"><path d="M 0.460938 0.730469 L 104.5 0.730469 L 104.5 141.003906 L 0.460938 141.003906 Z M 0.460938 0.730469 " clip-rule="nonzero"/></clipPath><clipPath id="4fc2ee00e4"><path d="M 109.660156 0.730469 C 49.351562 0.730469 0.460938 49.621094 0.460938 109.933594 C 0.460938 170.242188 49.351562 219.132812 109.660156 219.132812 C 169.972656 219.132812 218.863281 170.242188 218.863281 109.933594 C 218.863281 49.621094 169.972656 0.730469 109.660156 0.730469 Z M 109.660156 0.730469 " clip-rule="nonzero"/></clipPath><clipPath id="3403fb29bc"><rect x="0" width="105" y="0" height="142"/></clipPath><clipPath id="92f44b367d"><path d="M 59.9375 60.207031 L 104.5 60.207031 L 104.5 141.003906 L 59.9375 141.003906 Z M 59.9375 60.207031 " clip-rule="nonzero"/></clipPath><clipPath id="ee53b51729"><rect x="0" width="105" y="0" height="142"/></clipPath></defs><g clip-path="url(#afb50f6175)"><g transform="matrix(1, 0, 0, 1, 270, 233)"><g clip-path="url(#ee53b51729)"><g clip-path="url(#dd9c9f3331)"><g clip-path="url(#561547277a)"><g transform="matrix(1, 0, 0, 1, -0.000000000000113687, -0.000000000000056843)"><g clip-path="url(#3403fb29bc)"><g clip-path="url(#3166d81531)"><g clip-path="url(#4fc2ee00e4)"><path fill="#4f997f" d="M 0.460938 0.730469 L 218.863281 0.730469 L 218.863281 219.132812 L 0.460938 219.132812 Z M 0.460938 0.730469 " fill-opacity="1" fill-rule="nonzero"/></g></g></g></g></g></g><g clip-path="url(#92f44b367d)"><path fill="#e8e3f4" d="M 159.375 109.925781 C 159.375 137.5 137.226562 159.644531 109.65625 159.644531 C 82.085938 159.644531 59.9375 137.5 59.9375 109.925781 C 59.9375 82.355469 82.085938 60.207031 109.65625 60.207031 C 137.226562 60.207031 159.375 82.355469 159.375 109.925781 Z M 141.296875 98.402344 L 121.183594 98.402344 L 121.183594 78.285156 L 97.902344 78.285156 L 97.902344 98.402344 L 77.789062 98.402344 L 77.789062 121.679688 L 97.902344 121.679688 L 97.902344 141.566406 L 121.183594 141.566406 L 121.183594 121.453125 L 141.296875 121.453125 Z M 141.296875 98.402344 " fill-opacity="1" fill-rule="nonzero"/></g></g></g></g></svg>