<svg xmlns="http://www.w3.org/2000/svg" xmlns:xlink="http://www.w3.org/1999/xlink" width="1024" zoomAndPan="magnify" viewBox="0 0 768 767.999994" height="1024" preserveAspectRatio="xMidYMid meet" version="1.0"><defs><clipPath id="8a0febb66d"><path d="M 0.222656 0.222656 L 713.777344 0.222656 L 713.777344 713.777344 L 0.222656 713.777344 Z M 0.222656 0.222656 " clip-rule="nonzero"/></clipPath><clipPath id="f3792ad794"><path d="M 357 0.222656 C 159.957031 0.222656 0.222656 159.957031 0.222656 357 C 0.222656 554.042969 159.957031 713.777344 357 713.777344 C 554.042969 713.777344 713.777344 554.042969 713.777344 357 C 713.777344 159.957031 554.042969 0.222656 357 0.222656 Z M 357 0.222656 " clip-rule="nonzero"/></clipPath><clipPath id="c167b89022"><path d="M 0.222656 0.222656 L 713.777344 0.222656 L 713.777344 713.777344 L 0.222656 713.777344 Z M 0.222656 0.222656 " clip-rule="nonzero"/></clipPath><clipPath id="b4922b2557"><path d="M 357 0.222656 C 159.957031 0.222656 0.222656 159.957031 0.222656 357 C 0.222656 554.042969 159.957031 713.777344 357 713.777344 C 554.042969 713.777344 713.777344 554.042969 713.777344 357 C 713.777344 159.957031 554.042969 0.222656 357 0.222656 Z M 357 0.222656 " clip-rule="nonzero"/></clipPath><clipPath id="4b537a1384"><rect x="0" width="714" y="0" height="714"/></clipPath><clipPath id="b584c96380"><path d="M 194.539062 194.539062 L 520 194.539062 L 520 520 L 194.539062 520 Z M 194.539062 194.539062 " clip-rule="nonzero"/></clipPath><clipPath id="95b4d6ee6a"><rect x="0" width="714" y="0" height="714"/></clipPath></defs><g transform="matrix(1, 0, 0, 1, 27, 27)"><g clip-path="url(#95b4d6ee6a)"><g clip-path="url(#8a0febb66d)"><g clip-path="url(#f3792ad794)"><g transform="matrix(1, 0, 0, 1, 0, -0.000000000000056843)"><g clip-path="url(#4b537a1384)"><g clip-path="url(#c167b89022)"><g clip-path="url(#b4922b2557)"><path fill="#4f997f" d="M 0.222656 0.222656 L 713.777344 0.222656 L 713.777344 713.777344 L 0.222656 713.777344 Z M 0.222656 0.222656 " fill-opacity="1" fill-rule="nonzero"/></g></g></g></g></g></g><g clip-path="url(#b584c96380)"><path fill="#e8e3f4" d="M 519.421875 356.980469 C 519.421875 447.0625 447.0625 519.421875 356.980469 519.421875 C 266.898438 519.421875 194.539062 447.0625 194.539062 356.980469 C 194.539062 266.898438 266.898438 194.539062 356.980469 194.539062 C 447.0625 194.539062 519.421875 266.898438 519.421875 356.980469 Z M 460.351562 319.324219 L 394.636719 319.324219 L 394.636719 253.609375 L 318.585938 253.609375 L 318.585938 319.324219 L 252.871094 319.324219 L 252.871094 395.375 L 318.585938 395.375 L 318.585938 460.351562 L 394.636719 460.351562 L 394.636719 394.636719 L 460.351562 394.636719 Z M 460.351562 319.324219 " fill-opacity="1" fill-rule="nonzero"/></g></g></g></svg>