<svg xmlns="http://www.w3.org/2000/svg" xmlns:xlink="http://www.w3.org/1999/xlink" width="1024" zoomAndPan="magnify" viewBox="0 0 768 767.999994" height="1024" preserveAspectRatio="xMidYMid meet" version="1.0"><defs><g/><clipPath id="ce26b88d69"><path d="M 384 -1.515625 C 171.503906 -1.515625 -0.757812 170.746094 -0.757812 383.242188 C -0.757812 595.738281 171.503906 768 384 768 C 596.496094 768 768.757812 595.738281 768.757812 383.242188 C 768.757812 170.746094 596.496094 -1.515625 384 -1.515625 Z M 384 -1.515625 " clip-rule="nonzero"/></clipPath><clipPath id="e57c256ca3"><path d="M 0 0 L 768 0 L 768 768 L 0 768 Z M 0 0 " clip-rule="nonzero"/></clipPath><clipPath id="e1e62de426"><path d="M 384 -1.515625 C 171.503906 -1.515625 -0.757812 170.746094 -0.757812 383.242188 C -0.757812 595.738281 171.503906 768 384 768 C 596.496094 768 768.757812 595.738281 768.757812 383.242188 C 768.757812 170.746094 596.496094 -1.515625 384 -1.515625 Z M 384 -1.515625 " clip-rule="nonzero"/></clipPath><clipPath id="44892462de"><rect x="0" width="768" y="0" height="768"/></clipPath><clipPath id="7bc46ab3e9"><rect x="0" width="465" y="0" height="119"/></clipPath></defs><g clip-path="url(#ce26b88d69)"><g transform="matrix(1, 0, 0, 1, 0, -0.000000000000057351)"><g clip-path="url(#44892462de)"><g clip-path="url(#e57c256ca3)"><g clip-path="url(#e1e62de426)"><rect x="-168.96" width="1105.92" fill="#fffcf6" height="1105.919991" y="-168.959999" fill-opacity="1"/></g></g></g></g></g><g transform="matrix(1, 0, 0, 1, 151, 324)"><g clip-path="url(#7bc46ab3e9)"><g fill="#054937" fill-opacity="1"><g transform="translate(111.951556, 35.832594)"><g><path d="M 2.4375 -26.28125 L 12.203125 -26.28125 L 17.640625 -12.765625 L 18.578125 -12.765625 L 24.03125 -26.28125 L 33.796875 -26.28125 L 33.796875 0 L 26.84375 0 L 26.84375 -15.015625 L 27.40625 -18.390625 L 27.03125 -18.390625 L 21.96875 -6 L 14.265625 -6 L 9.203125 -18.390625 L 8.828125 -18.390625 L 9.390625 -15.015625 L 9.390625 0 L 2.4375 0 Z M 2.4375 -26.28125 "/></g></g></g><g fill="#054937" fill-opacity="1"><g transform="translate(145.629458, 35.832594)"><g><path d="M 9.765625 0.5625 C 8.585938 0.5625 7.476562 0.328125 6.4375 -0.140625 C 5.394531 -0.617188 4.476562 -1.300781 3.6875 -2.1875 C 2.90625 -3.082031 2.28125 -4.164062 1.8125 -5.4375 C 1.351562 -6.71875 1.125 -8.160156 1.125 -9.765625 C 1.125 -11.367188 1.351562 -12.804688 1.8125 -14.078125 C 2.28125 -15.359375 2.90625 -16.441406 3.6875 -17.328125 C 4.476562 -18.210938 5.394531 -18.894531 6.4375 -19.375 C 7.476562 -19.851562 8.585938 -20.09375 9.765625 -20.09375 C 10.734375 -20.09375 11.582031 -19.921875 12.3125 -19.578125 C 13.039062 -19.242188 13.65625 -18.875 14.15625 -18.46875 C 14.726562 -18.019531 15.203125 -17.492188 15.578125 -16.890625 L 15.953125 -16.890625 L 15.953125 -19.53125 L 22.34375 -19.53125 L 22.34375 0 L 15.953125 0 L 15.953125 -2.625 L 15.578125 -2.625 C 15.203125 -2 14.726562 -1.460938 14.15625 -1.015625 C 13.65625 -0.609375 13.039062 -0.242188 12.3125 0.078125 C 11.582031 0.398438 10.734375 0.5625 9.765625 0.5625 Z M 11.828125 -4.875 C 13.054688 -4.875 14.050781 -5.285156 14.8125 -6.109375 C 15.570312 -6.941406 15.953125 -8.160156 15.953125 -9.765625 C 15.953125 -11.367188 15.570312 -12.582031 14.8125 -13.40625 C 14.050781 -14.226562 13.054688 -14.640625 11.828125 -14.640625 C 10.597656 -14.640625 9.601562 -14.226562 8.84375 -13.40625 C 8.082031 -12.582031 7.703125 -11.367188 7.703125 -9.765625 C 7.703125 -8.160156 8.082031 -6.941406 8.84375 -6.109375 C 9.601562 -5.285156 10.597656 -4.875 11.828125 -4.875 Z M 11.828125 -4.875 "/></g></g></g><g fill="#054937" fill-opacity="1"><g transform="translate(167.292799, 35.832594)"><g><path d="M 1.875 -26.28125 L 8.265625 -26.28125 L 8.265625 -5.0625 L 12.578125 -5.0625 L 12.578125 0 L 1.875 0 Z M 1.875 -26.28125 "/></g></g></g><g fill="#054937" fill-opacity="1"><g transform="translate(177.69249, 35.832594)"><g><path d="M 9.765625 0.5625 C 8.585938 0.5625 7.476562 0.328125 6.4375 -0.140625 C 5.394531 -0.617188 4.476562 -1.300781 3.6875 -2.1875 C 2.90625 -3.082031 2.28125 -4.164062 1.8125 -5.4375 C 1.351562 -6.71875 1.125 -8.160156 1.125 -9.765625 C 1.125 -11.367188 1.351562 -12.804688 1.8125 -14.078125 C 2.28125 -15.359375 2.90625 -16.441406 3.6875 -17.328125 C 4.476562 -18.210938 5.394531 -18.894531 6.4375 -19.375 C 7.476562 -19.851562 8.585938 -20.09375 9.765625 -20.09375 C 10.734375 -20.09375 11.582031 -19.921875 12.3125 -19.578125 C 13.039062 -19.242188 13.65625 -18.875 14.15625 -18.46875 C 14.726562 -18.019531 15.203125 -17.492188 15.578125 -16.890625 L 15.953125 -16.890625 L 15.953125 -19.53125 L 22.34375 -19.53125 L 22.34375 0 L 15.953125 0 L 15.953125 -2.625 L 15.578125 -2.625 C 15.203125 -2 14.726562 -1.460938 14.15625 -1.015625 C 13.65625 -0.609375 13.039062 -0.242188 12.3125 0.078125 C 11.582031 0.398438 10.734375 0.5625 9.765625 0.5625 Z M 11.828125 -4.875 C 13.054688 -4.875 14.050781 -5.285156 14.8125 -6.109375 C 15.570312 -6.941406 15.953125 -8.160156 15.953125 -9.765625 C 15.953125 -11.367188 15.570312 -12.582031 14.8125 -13.40625 C 14.050781 -14.226562 13.054688 -14.640625 11.828125 -14.640625 C 10.597656 -14.640625 9.601562 -14.226562 8.84375 -13.40625 C 8.082031 -12.582031 7.703125 -11.367188 7.703125 -9.765625 C 7.703125 -8.160156 8.082031 -6.941406 8.84375 -6.109375 C 9.601562 -5.285156 10.597656 -4.875 11.828125 -4.875 Z M 11.828125 -4.875 "/></g></g></g><g fill="#054937" fill-opacity="1"><g transform="translate(199.355831, 35.832594)"><g><path d="M 9.765625 0 L 5.4375 0 L 0.375 -19.53125 L 6.953125 -19.53125 L 10.328125 -5.4375 L 11.453125 -5.4375 L 15.203125 -19.53125 L 21.78125 -19.53125 L 14.265625 7.140625 L 7.703125 7.140625 Z M 9.765625 0 "/></g></g></g><g fill="#054937" fill-opacity="1"><g transform="translate(218.390988, 35.832594)"><g><path d="M 10.703125 0.5625 C 9.597656 0.5625 8.609375 0.460938 7.734375 0.265625 C 6.859375 0.0664062 6.082031 -0.191406 5.40625 -0.515625 C 4.726562 -0.847656 4.144531 -1.21875 3.65625 -1.625 C 3.164062 -2.039062 2.75 -2.460938 2.40625 -2.890625 C 1.570312 -3.890625 1.019531 -5.054688 0.75 -6.390625 L 7.140625 -6.390625 C 7.265625 -5.984375 7.472656 -5.628906 7.765625 -5.328125 C 8.046875 -5.054688 8.414062 -4.816406 8.875 -4.609375 C 9.34375 -4.410156 9.953125 -4.3125 10.703125 -4.3125 C 11.648438 -4.3125 12.320312 -4.4375 12.71875 -4.6875 C 13.125 -4.9375 13.328125 -5.25 13.328125 -5.625 C 13.328125 -6.050781 13.039062 -6.390625 12.46875 -6.640625 C 11.894531 -6.890625 11.175781 -7.113281 10.3125 -7.3125 C 9.445312 -7.519531 8.507812 -7.753906 7.5 -8.015625 C 6.5 -8.273438 5.566406 -8.648438 4.703125 -9.140625 C 3.847656 -9.628906 3.128906 -10.257812 2.546875 -11.03125 C 1.972656 -11.8125 1.6875 -12.828125 1.6875 -14.078125 C 1.6875 -14.859375 1.859375 -15.601562 2.203125 -16.3125 C 2.554688 -17.03125 3.082031 -17.671875 3.78125 -18.234375 C 4.488281 -18.796875 5.367188 -19.242188 6.421875 -19.578125 C 7.472656 -19.921875 8.710938 -20.09375 10.140625 -20.09375 C 11.191406 -20.09375 12.132812 -20 12.96875 -19.8125 C 13.8125 -19.625 14.554688 -19.367188 15.203125 -19.046875 C 15.859375 -18.734375 16.414062 -18.378906 16.875 -17.984375 C 17.34375 -17.585938 17.75 -17.1875 18.09375 -16.78125 C 18.875 -15.800781 19.414062 -14.710938 19.71875 -13.515625 L 13.515625 -13.515625 C 13.410156 -13.867188 13.234375 -14.179688 12.984375 -14.453125 C 12.785156 -14.679688 12.484375 -14.894531 12.078125 -15.09375 C 11.679688 -15.289062 11.160156 -15.390625 10.515625 -15.390625 C 9.765625 -15.390625 9.203125 -15.265625 8.828125 -15.015625 C 8.453125 -14.765625 8.265625 -14.453125 8.265625 -14.078125 C 8.265625 -13.628906 8.550781 -13.289062 9.125 -13.0625 C 9.695312 -12.84375 10.414062 -12.640625 11.28125 -12.453125 C 12.144531 -12.265625 13.078125 -12.046875 14.078125 -11.796875 C 15.078125 -11.546875 16.007812 -11.1875 16.875 -10.71875 C 17.738281 -10.257812 18.457031 -9.640625 19.03125 -8.859375 C 19.613281 -8.085938 19.90625 -7.070312 19.90625 -5.8125 C 19.90625 -4.96875 19.710938 -4.160156 19.328125 -3.390625 C 18.953125 -2.628906 18.382812 -1.953125 17.625 -1.359375 C 16.863281 -0.773438 15.90625 -0.3125 14.75 0.03125 C 13.601562 0.382812 12.253906 0.5625 10.703125 0.5625 Z M 10.703125 0.5625 "/></g></g></g><g fill="#054937" fill-opacity="1"><g transform="translate(236.675235, 35.832594)"><g><path d="M 2.0625 -19.53125 L 8.453125 -19.53125 L 8.453125 0 L 2.0625 0 Z M 5.25 -21.59375 C 4.195312 -21.59375 3.335938 -21.910156 2.671875 -22.546875 C 2.015625 -23.179688 1.6875 -23.925781 1.6875 -24.78125 C 1.6875 -25.65625 2.015625 -26.40625 2.671875 -27.03125 C 3.335938 -27.65625 4.195312 -27.96875 5.25 -27.96875 C 6.300781 -27.96875 7.160156 -27.65625 7.828125 -27.03125 C 8.492188 -26.40625 8.828125 -25.65625 8.828125 -24.78125 C 8.828125 -23.925781 8.492188 -23.179688 7.828125 -22.546875 C 7.160156 -21.910156 6.300781 -21.59375 5.25 -21.59375 Z M 5.25 -21.59375 "/></g></g></g><g fill="#054937" fill-opacity="1"><g transform="translate(244.634474, 35.832594)"><g><path d="M 9.765625 0.5625 C 8.585938 0.5625 7.476562 0.328125 6.4375 -0.140625 C 5.394531 -0.617188 4.476562 -1.300781 3.6875 -2.1875 C 2.90625 -3.082031 2.28125 -4.164062 1.8125 -5.4375 C 1.351562 -6.71875 1.125 -8.160156 1.125 -9.765625 C 1.125 -11.367188 1.351562 -12.804688 1.8125 -14.078125 C 2.28125 -15.359375 2.90625 -16.441406 3.6875 -17.328125 C 4.476562 -18.210938 5.394531 -18.894531 6.4375 -19.375 C 7.476562 -19.851562 8.585938 -20.09375 9.765625 -20.09375 C 10.734375 -20.09375 11.582031 -19.921875 12.3125 -19.578125 C 13.039062 -19.242188 13.65625 -18.875 14.15625 -18.46875 C 14.726562 -18.019531 15.203125 -17.492188 15.578125 -16.890625 L 15.953125 -16.890625 L 15.953125 -19.53125 L 22.34375 -19.53125 L 22.34375 0 L 15.953125 0 L 15.953125 -2.625 L 15.578125 -2.625 C 15.203125 -2 14.726562 -1.460938 14.15625 -1.015625 C 13.65625 -0.609375 13.039062 -0.242188 12.3125 0.078125 C 11.582031 0.398438 10.734375 0.5625 9.765625 0.5625 Z M 11.828125 -4.875 C 13.054688 -4.875 14.050781 -5.285156 14.8125 -6.109375 C 15.570312 -6.941406 15.953125 -8.160156 15.953125 -9.765625 C 15.953125 -11.367188 15.570312 -12.582031 14.8125 -13.40625 C 14.050781 -14.226562 13.054688 -14.640625 11.828125 -14.640625 C 10.597656 -14.640625 9.601562 -14.226562 8.84375 -13.40625 C 8.082031 -12.582031 7.703125 -11.367188 7.703125 -9.765625 C 7.703125 -8.160156 8.082031 -6.941406 8.84375 -6.109375 C 9.601562 -5.285156 10.597656 -4.875 11.828125 -4.875 Z M 11.828125 -4.875 "/></g></g></g><g fill="#054937" fill-opacity="1"><g transform="translate(266.297815, 35.832594)"><g><path d="M 1.6875 -18.015625 C 2.632812 -18.015625 3.367188 -18.265625 3.890625 -18.765625 C 4.421875 -19.273438 4.6875 -19.90625 4.6875 -20.65625 L 4.6875 -21.03125 C 4.613281 -20.976562 4.53125 -20.9375 4.4375 -20.90625 C 4.226562 -20.863281 4 -20.84375 3.75 -20.84375 C 3 -20.84375 2.375 -21.101562 1.875 -21.625 C 1.375 -22.15625 1.125 -22.894531 1.125 -23.84375 C 1.125 -24.789062 1.445312 -25.585938 2.09375 -26.234375 C 2.75 -26.890625 3.550781 -27.21875 4.5 -27.21875 C 5.550781 -27.21875 6.410156 -26.835938 7.078125 -26.078125 C 7.742188 -25.316406 8.078125 -24.132812 8.078125 -22.53125 C 8.078125 -20.25 7.503906 -18.519531 6.359375 -17.34375 C 5.222656 -16.164062 3.664062 -15.578125 1.6875 -15.578125 Z M 1.6875 -18.015625 "/></g></g></g><g fill="#054937" fill-opacity="1"><g transform="translate(272.942962, 35.832594)"><g><path d="M 10.703125 0.5625 C 9.597656 0.5625 8.609375 0.460938 7.734375 0.265625 C 6.859375 0.0664062 6.082031 -0.191406 5.40625 -0.515625 C 4.726562 -0.847656 4.144531 -1.21875 3.65625 -1.625 C 3.164062 -2.039062 2.75 -2.460938 2.40625 -2.890625 C 1.570312 -3.890625 1.019531 -5.054688 0.75 -6.390625 L 7.140625 -6.390625 C 7.265625 -5.984375 7.472656 -5.628906 7.765625 -5.328125 C 8.046875 -5.054688 8.414062 -4.816406 8.875 -4.609375 C 9.34375 -4.410156 9.953125 -4.3125 10.703125 -4.3125 C 11.648438 -4.3125 12.320312 -4.4375 12.71875 -4.6875 C 13.125 -4.9375 13.328125 -5.25 13.328125 -5.625 C 13.328125 -6.050781 13.039062 -6.390625 12.46875 -6.640625 C 11.894531 -6.890625 11.175781 -7.113281 10.3125 -7.3125 C 9.445312 -7.519531 8.507812 -7.753906 7.5 -8.015625 C 6.5 -8.273438 5.566406 -8.648438 4.703125 -9.140625 C 3.847656 -9.628906 3.128906 -10.257812 2.546875 -11.03125 C 1.972656 -11.8125 1.6875 -12.828125 1.6875 -14.078125 C 1.6875 -14.859375 1.859375 -15.601562 2.203125 -16.3125 C 2.554688 -17.03125 3.082031 -17.671875 3.78125 -18.234375 C 4.488281 -18.796875 5.367188 -19.242188 6.421875 -19.578125 C 7.472656 -19.921875 8.710938 -20.09375 10.140625 -20.09375 C 11.191406 -20.09375 12.132812 -20 12.96875 -19.8125 C 13.8125 -19.625 14.554688 -19.367188 15.203125 -19.046875 C 15.859375 -18.734375 16.414062 -18.378906 16.875 -17.984375 C 17.34375 -17.585938 17.75 -17.1875 18.09375 -16.78125 C 18.875 -15.800781 19.414062 -14.710938 19.71875 -13.515625 L 13.515625 -13.515625 C 13.410156 -13.867188 13.234375 -14.179688 12.984375 -14.453125 C 12.785156 -14.679688 12.484375 -14.894531 12.078125 -15.09375 C 11.679688 -15.289062 11.160156 -15.390625 10.515625 -15.390625 C 9.765625 -15.390625 9.203125 -15.265625 8.828125 -15.015625 C 8.453125 -14.765625 8.265625 -14.453125 8.265625 -14.078125 C 8.265625 -13.628906 8.550781 -13.289062 9.125 -13.0625 C 9.695312 -12.84375 10.414062 -12.640625 11.28125 -12.453125 C 12.144531 -12.265625 13.078125 -12.046875 14.078125 -11.796875 C 15.078125 -11.546875 16.007812 -11.1875 16.875 -10.71875 C 17.738281 -10.257812 18.457031 -9.640625 19.03125 -8.859375 C 19.613281 -8.085938 19.90625 -7.070312 19.90625 -5.8125 C 19.90625 -4.96875 19.710938 -4.160156 19.328125 -3.390625 C 18.953125 -2.628906 18.382812 -1.953125 17.625 -1.359375 C 16.863281 -0.773438 15.90625 -0.3125 14.75 0.03125 C 13.601562 0.382812 12.253906 0.5625 10.703125 0.5625 Z M 10.703125 0.5625 "/></g></g></g><g fill="#054937" fill-opacity="1"><g transform="translate(291.227201, 35.832594)"><g/></g></g><g fill="#054937" fill-opacity="1"><g transform="translate(299.18644, 35.832594)"><g><path d="M 5.8125 -18.390625 L 1.125 -15.203125 L 1.125 -22.53125 L 6.578125 -26.28125 L 12.953125 -26.28125 L 12.953125 0 L 5.8125 0 Z M 5.8125 -18.390625 "/></g></g></g><g fill="#054937" fill-opacity="1"><g transform="translate(312.026599, 35.832594)"><g><path d="M 10.703125 0.5625 C 9.597656 0.5625 8.609375 0.460938 7.734375 0.265625 C 6.859375 0.0664062 6.082031 -0.191406 5.40625 -0.515625 C 4.726562 -0.847656 4.144531 -1.21875 3.65625 -1.625 C 3.164062 -2.039062 2.75 -2.460938 2.40625 -2.890625 C 1.570312 -3.890625 1.019531 -5.054688 0.75 -6.390625 L 7.140625 -6.390625 C 7.265625 -5.984375 7.472656 -5.628906 7.765625 -5.328125 C 8.046875 -5.054688 8.414062 -4.816406 8.875 -4.609375 C 9.34375 -4.410156 9.953125 -4.3125 10.703125 -4.3125 C 11.648438 -4.3125 12.320312 -4.4375 12.71875 -4.6875 C 13.125 -4.9375 13.328125 -5.25 13.328125 -5.625 C 13.328125 -6.050781 13.039062 -6.390625 12.46875 -6.640625 C 11.894531 -6.890625 11.175781 -7.113281 10.3125 -7.3125 C 9.445312 -7.519531 8.507812 -7.753906 7.5 -8.015625 C 6.5 -8.273438 5.566406 -8.648438 4.703125 -9.140625 C 3.847656 -9.628906 3.128906 -10.257812 2.546875 -11.03125 C 1.972656 -11.8125 1.6875 -12.828125 1.6875 -14.078125 C 1.6875 -14.859375 1.859375 -15.601562 2.203125 -16.3125 C 2.554688 -17.03125 3.082031 -17.671875 3.78125 -18.234375 C 4.488281 -18.796875 5.367188 -19.242188 6.421875 -19.578125 C 7.472656 -19.921875 8.710938 -20.09375 10.140625 -20.09375 C 11.191406 -20.09375 12.132812 -20 12.96875 -19.8125 C 13.8125 -19.625 14.554688 -19.367188 15.203125 -19.046875 C 15.859375 -18.734375 16.414062 -18.378906 16.875 -17.984375 C 17.34375 -17.585938 17.75 -17.1875 18.09375 -16.78125 C 18.875 -15.800781 19.414062 -14.710938 19.71875 -13.515625 L 13.515625 -13.515625 C 13.410156 -13.867188 13.234375 -14.179688 12.984375 -14.453125 C 12.785156 -14.679688 12.484375 -14.894531 12.078125 -15.09375 C 11.679688 -15.289062 11.160156 -15.390625 10.515625 -15.390625 C 9.765625 -15.390625 9.203125 -15.265625 8.828125 -15.015625 C 8.453125 -14.765625 8.265625 -14.453125 8.265625 -14.078125 C 8.265625 -13.628906 8.550781 -13.289062 9.125 -13.0625 C 9.695312 -12.84375 10.414062 -12.640625 11.28125 -12.453125 C 12.144531 -12.265625 13.078125 -12.046875 14.078125 -11.796875 C 15.078125 -11.546875 16.007812 -11.1875 16.875 -10.71875 C 17.738281 -10.257812 18.457031 -9.640625 19.03125 -8.859375 C 19.613281 -8.085938 19.90625 -7.070312 19.90625 -5.8125 C 19.90625 -4.96875 19.710938 -4.160156 19.328125 -3.390625 C 18.953125 -2.628906 18.382812 -1.953125 17.625 -1.359375 C 16.863281 -0.773438 15.90625 -0.3125 14.75 0.03125 C 13.601562 0.382812 12.253906 0.5625 10.703125 0.5625 Z M 10.703125 0.5625 "/></g></g></g><g fill="#054937" fill-opacity="1"><g transform="translate(330.310854, 35.832594)"><g><path d="M 3 -14.453125 L 0.5625 -14.453125 L 0.5625 -19.53125 L 3 -19.53125 L 3 -23.65625 L 9.390625 -23.65625 L 9.390625 -19.53125 L 14.453125 -19.53125 L 14.453125 -14.453125 L 9.390625 -14.453125 L 9.390625 -5.0625 L 14.828125 -5.0625 L 14.828125 0 L 3 0 Z M 3 -14.453125 "/></g></g></g><g fill="#054937" fill-opacity="1"><g transform="translate(343.527292, 35.832594)"><g/></g></g><g fill="#054937" fill-opacity="1"><g transform="translate(72.32149, 77.001614)"><g><path d="M 2.4375 -26.28125 L 22.71875 -26.28125 L 22.71875 -19.90625 L 9.390625 -19.90625 L 9.390625 -15.953125 L 20.09375 -15.953125 L 20.09375 -10.328125 L 9.390625 -10.328125 L 9.390625 -6.390625 L 22.71875 -6.390625 L 22.71875 0 L 2.4375 0 Z M 2.4375 -26.28125 "/></g></g></g><g fill="#054937" fill-opacity="1"><g transform="translate(93.984831, 77.001614)"><g><path d="M 1.875 -12.765625 L 16.515625 -12.765625 L 16.515625 -7.515625 L 1.875 -7.515625 Z M 1.875 -12.765625 "/></g></g></g><g fill="#054937" fill-opacity="1"><g transform="translate(109.828626, 77.001614)"><g><path d="M 2.4375 -26.28125 L 15.578125 -26.28125 C 17.179688 -26.28125 18.628906 -26.035156 19.921875 -25.546875 C 21.210938 -25.054688 22.3125 -24.398438 23.21875 -23.578125 C 24.132812 -22.753906 24.84375 -21.785156 25.34375 -20.671875 C 25.84375 -19.554688 26.09375 -18.359375 26.09375 -17.078125 C 26.09375 -16.109375 25.945312 -15.210938 25.65625 -14.390625 C 25.375 -13.578125 24.992188 -12.851562 24.515625 -12.21875 C 24.046875 -11.582031 23.488281 -11.015625 22.84375 -10.515625 C 22.207031 -10.015625 21.539062 -9.578125 20.84375 -9.203125 L 26.28125 0 L 18.765625 0 L 14.078125 -7.890625 L 9.390625 -7.890625 L 9.390625 0 L 2.4375 0 Z M 15.390625 -14.265625 C 16.515625 -14.265625 17.390625 -14.546875 18.015625 -15.109375 C 18.648438 -15.671875 18.96875 -16.328125 18.96875 -17.078125 C 18.96875 -17.828125 18.648438 -18.484375 18.015625 -19.046875 C 17.390625 -19.617188 16.515625 -19.90625 15.390625 -19.90625 L 9.390625 -19.90625 L 9.390625 -14.265625 Z M 15.390625 -14.265625 "/></g></g></g><g fill="#054937" fill-opacity="1"><g transform="translate(134.871062, 77.001614)"><g><path d="M 11.640625 0.5625 C 10.140625 0.5625 8.738281 0.285156 7.4375 -0.265625 C 6.132812 -0.816406 5 -1.5625 4.03125 -2.5 C 3.070312 -3.4375 2.316406 -4.53125 1.765625 -5.78125 C 1.210938 -7.03125 0.9375 -8.359375 0.9375 -9.765625 C 0.9375 -11.160156 1.210938 -12.484375 1.765625 -13.734375 C 2.316406 -14.992188 3.070312 -16.09375 4.03125 -17.03125 C 5 -17.96875 6.132812 -18.710938 7.4375 -19.265625 C 8.738281 -19.816406 10.140625 -20.09375 11.640625 -20.09375 C 13.191406 -20.09375 14.617188 -19.816406 15.921875 -19.265625 C 17.222656 -18.710938 18.347656 -17.96875 19.296875 -17.03125 C 20.242188 -16.09375 20.988281 -14.992188 21.53125 -13.734375 C 22.070312 -12.484375 22.34375 -11.160156 22.34375 -9.765625 L 22.34375 -8.640625 L 7.515625 -8.640625 C 7.710938 -7.304688 8.164062 -6.28125 8.875 -5.5625 C 9.59375 -4.851562 10.515625 -4.5 11.640625 -4.5 C 12.390625 -4.5 13.007812 -4.597656 13.5 -4.796875 C 13.988281 -5.003906 14.367188 -5.242188 14.640625 -5.515625 C 14.960938 -5.816406 15.210938 -6.171875 15.390625 -6.578125 L 22.15625 -6.578125 C 21.707031 -5.222656 21.03125 -4.03125 20.125 -3 C 19.75 -2.550781 19.289062 -2.113281 18.75 -1.6875 C 18.21875 -1.257812 17.601562 -0.875 16.90625 -0.53125 C 16.21875 -0.195312 15.4375 0.0664062 14.5625 0.265625 C 13.6875 0.460938 12.710938 0.5625 11.640625 0.5625 Z M 15.578125 -11.828125 C 15.378906 -12.679688 14.9375 -13.425781 14.25 -14.0625 C 13.5625 -14.695312 12.691406 -15.015625 11.640625 -15.015625 C 10.585938 -15.015625 9.71875 -14.695312 9.03125 -14.0625 C 8.34375 -13.425781 7.898438 -12.679688 7.703125 -11.828125 Z M 15.578125 -11.828125 "/></g></g></g><g fill="#054937" fill-opacity="1"><g transform="translate(155.783495, 77.001614)"><g><path d="M 3 -13.703125 L 0.5625 -13.703125 L 0.5625 -18.765625 L 3 -18.765625 L 3 -26.28125 L 14.640625 -26.28125 L 14.640625 -21.21875 L 9.390625 -21.21875 L 9.390625 -18.765625 L 13.703125 -18.765625 L 13.703125 -13.703125 L 9.390625 -13.703125 L 9.390625 0 L 3 0 Z M 3 -13.703125 "/></g></g></g><g fill="#054937" fill-opacity="1"><g transform="translate(167.685011, 77.001614)"><g><path d="M 11.640625 0.5625 C 10.140625 0.5625 8.738281 0.285156 7.4375 -0.265625 C 6.132812 -0.816406 5 -1.5625 4.03125 -2.5 C 3.070312 -3.4375 2.316406 -4.53125 1.765625 -5.78125 C 1.210938 -7.03125 0.9375 -8.359375 0.9375 -9.765625 C 0.9375 -11.160156 1.210938 -12.484375 1.765625 -13.734375 C 2.316406 -14.992188 3.070312 -16.09375 4.03125 -17.03125 C 5 -17.96875 6.132812 -18.710938 7.4375 -19.265625 C 8.738281 -19.816406 10.140625 -20.09375 11.640625 -20.09375 C 13.191406 -20.09375 14.617188 -19.816406 15.921875 -19.265625 C 17.222656 -18.710938 18.347656 -17.96875 19.296875 -17.03125 C 20.242188 -16.09375 20.988281 -14.992188 21.53125 -13.734375 C 22.070312 -12.484375 22.34375 -11.160156 22.34375 -9.765625 L 22.34375 -8.640625 L 7.515625 -8.640625 C 7.710938 -7.304688 8.164062 -6.28125 8.875 -5.5625 C 9.59375 -4.851562 10.515625 -4.5 11.640625 -4.5 C 12.390625 -4.5 13.007812 -4.597656 13.5 -4.796875 C 13.988281 -5.003906 14.367188 -5.242188 14.640625 -5.515625 C 14.960938 -5.816406 15.210938 -6.171875 15.390625 -6.578125 L 22.15625 -6.578125 C 21.707031 -5.222656 21.03125 -4.03125 20.125 -3 C 19.75 -2.550781 19.289062 -2.113281 18.75 -1.6875 C 18.21875 -1.257812 17.601562 -0.875 16.90625 -0.53125 C 16.21875 -0.195312 15.4375 0.0664062 14.5625 0.265625 C 13.6875 0.460938 12.710938 0.5625 11.640625 0.5625 Z M 15.578125 -11.828125 C 15.378906 -12.679688 14.9375 -13.425781 14.25 -14.0625 C 13.5625 -14.695312 12.691406 -15.015625 11.640625 -15.015625 C 10.585938 -15.015625 9.71875 -14.695312 9.03125 -14.0625 C 8.34375 -13.425781 7.898438 -12.679688 7.703125 -11.828125 Z M 15.578125 -11.828125 "/></g></g></g><g fill="#054937" fill-opacity="1"><g transform="translate(188.597444, 77.001614)"><g><path d="M 1.875 -19.53125 L 8.078125 -19.53125 L 8.078125 -16.703125 L 8.453125 -16.703125 C 8.671875 -17.304688 9.007812 -17.832031 9.46875 -18.28125 C 9.84375 -18.6875 10.328125 -19.054688 10.921875 -19.390625 C 11.523438 -19.734375 12.289062 -19.90625 13.21875 -19.90625 L 15.203125 -19.90625 L 15.203125 -13.703125 L 12.015625 -13.703125 C 10.890625 -13.703125 9.984375 -13.359375 9.296875 -12.671875 C 8.609375 -11.984375 8.265625 -11.078125 8.265625 -9.953125 L 8.265625 0 L 1.875 0 Z M 1.875 -19.53125 "/></g></g></g><g fill="#054937" fill-opacity="1"><g transform="translate(201.813054, 77.001614)"><g><path d="M 1.875 -19.53125 L 8.078125 -19.53125 L 8.078125 -16.703125 L 8.453125 -16.703125 C 8.671875 -17.304688 9.007812 -17.832031 9.46875 -18.28125 C 9.84375 -18.6875 10.328125 -19.054688 10.921875 -19.390625 C 11.523438 -19.734375 12.289062 -19.90625 13.21875 -19.90625 L 15.203125 -19.90625 L 15.203125 -13.703125 L 12.015625 -13.703125 C 10.890625 -13.703125 9.984375 -13.359375 9.296875 -12.671875 C 8.609375 -11.984375 8.265625 -11.078125 8.265625 -9.953125 L 8.265625 0 L 1.875 0 Z M 1.875 -19.53125 "/></g></g></g><g fill="#054937" fill-opacity="1"><g transform="translate(215.028655, 77.001614)"><g><path d="M 9.765625 0.5625 C 8.585938 0.5625 7.476562 0.328125 6.4375 -0.140625 C 5.394531 -0.617188 4.476562 -1.300781 3.6875 -2.1875 C 2.90625 -3.082031 2.28125 -4.164062 1.8125 -5.4375 C 1.351562 -6.71875 1.125 -8.160156 1.125 -9.765625 C 1.125 -11.367188 1.351562 -12.804688 1.8125 -14.078125 C 2.28125 -15.359375 2.90625 -16.441406 3.6875 -17.328125 C 4.476562 -18.210938 5.394531 -18.894531 6.4375 -19.375 C 7.476562 -19.851562 8.585938 -20.09375 9.765625 -20.09375 C 10.734375 -20.09375 11.582031 -19.921875 12.3125 -19.578125 C 13.039062 -19.242188 13.65625 -18.875 14.15625 -18.46875 C 14.726562 -18.019531 15.203125 -17.492188 15.578125 -16.890625 L 15.953125 -16.890625 L 15.953125 -19.53125 L 22.34375 -19.53125 L 22.34375 0 L 15.953125 0 L 15.953125 -2.625 L 15.578125 -2.625 C 15.203125 -2 14.726562 -1.460938 14.15625 -1.015625 C 13.65625 -0.609375 13.039062 -0.242188 12.3125 0.078125 C 11.582031 0.398438 10.734375 0.5625 9.765625 0.5625 Z M 11.828125 -4.875 C 13.054688 -4.875 14.050781 -5.285156 14.8125 -6.109375 C 15.570312 -6.941406 15.953125 -8.160156 15.953125 -9.765625 C 15.953125 -11.367188 15.570312 -12.582031 14.8125 -13.40625 C 14.050781 -14.226562 13.054688 -14.640625 11.828125 -14.640625 C 10.597656 -14.640625 9.601562 -14.226562 8.84375 -13.40625 C 8.082031 -12.582031 7.703125 -11.367188 7.703125 -9.765625 C 7.703125 -8.160156 8.082031 -6.941406 8.84375 -6.109375 C 9.601562 -5.285156 10.597656 -4.875 11.828125 -4.875 Z M 11.828125 -4.875 "/></g></g></g><g fill="#054937" fill-opacity="1"><g transform="translate(236.691997, 77.001614)"><g><path d="M 1.875 -26.28125 L 8.265625 -26.28125 L 8.265625 -5.0625 L 12.578125 -5.0625 L 12.578125 0 L 1.875 0 Z M 1.875 -26.28125 "/></g></g></g><g fill="#054937" fill-opacity="1"><g transform="translate(255.050935, 77.001614)"><g><path d="M 13.515625 0.75 C 12.160156 0.75 10.953125 0.617188 9.890625 0.359375 C 8.828125 0.0976562 7.875 -0.242188 7.03125 -0.671875 C 6.195312 -1.097656 5.46875 -1.585938 4.84375 -2.140625 C 4.21875 -2.691406 3.679688 -3.253906 3.234375 -3.828125 C 2.179688 -5.179688 1.414062 -6.722656 0.9375 -8.453125 L 8.078125 -8.453125 C 8.296875 -7.828125 8.632812 -7.285156 9.09375 -6.828125 C 9.488281 -6.429688 10.039062 -6.066406 10.75 -5.734375 C 11.46875 -5.410156 12.390625 -5.25 13.515625 -5.25 C 14.921875 -5.25 15.925781 -5.476562 16.53125 -5.9375 C 17.144531 -6.40625 17.453125 -6.929688 17.453125 -7.515625 C 17.453125 -8.179688 17.070312 -8.707031 16.3125 -9.09375 C 15.550781 -9.488281 14.585938 -9.835938 13.421875 -10.140625 C 12.253906 -10.441406 11 -10.757812 9.65625 -11.09375 C 8.320312 -11.4375 7.070312 -11.910156 5.90625 -12.515625 C 4.75 -13.128906 3.785156 -13.925781 3.015625 -14.90625 C 2.253906 -15.882812 1.875 -17.171875 1.875 -18.765625 C 1.875 -19.847656 2.117188 -20.890625 2.609375 -21.890625 C 3.097656 -22.890625 3.804688 -23.769531 4.734375 -24.53125 C 5.660156 -25.300781 6.796875 -25.910156 8.140625 -26.359375 C 9.492188 -26.804688 11.035156 -27.03125 12.765625 -27.03125 C 14.046875 -27.03125 15.1875 -26.910156 16.1875 -26.671875 C 17.1875 -26.441406 18.066406 -26.128906 18.828125 -25.734375 C 19.585938 -25.347656 20.253906 -24.910156 20.828125 -24.421875 C 21.410156 -23.929688 21.898438 -23.425781 22.296875 -22.90625 C 23.222656 -21.695312 23.863281 -20.316406 24.21875 -18.765625 L 17.078125 -18.765625 C 16.929688 -19.191406 16.679688 -19.570312 16.328125 -19.90625 C 16.023438 -20.175781 15.59375 -20.429688 15.03125 -20.671875 C 14.46875 -20.910156 13.710938 -21.03125 12.765625 -21.03125 C 11.441406 -21.03125 10.515625 -20.832031 9.984375 -20.4375 C 9.460938 -20.050781 9.203125 -19.625 9.203125 -19.15625 C 9.203125 -18.625 9.425781 -18.195312 9.875 -17.875 C 10.320312 -17.550781 10.910156 -17.265625 11.640625 -17.015625 C 12.367188 -16.765625 13.203125 -16.523438 14.140625 -16.296875 C 15.078125 -16.066406 16.023438 -15.8125 16.984375 -15.53125 C 17.953125 -15.257812 18.90625 -14.9375 19.84375 -14.5625 C 20.78125 -14.1875 21.609375 -13.695312 22.328125 -13.09375 C 23.054688 -12.5 23.644531 -11.78125 24.09375 -10.9375 C 24.550781 -10.101562 24.78125 -9.085938 24.78125 -7.890625 C 24.78125 -6.753906 24.539062 -5.664062 24.0625 -4.625 C 23.59375 -3.59375 22.882812 -2.675781 21.9375 -1.875 C 21 -1.070312 19.828125 -0.4375 18.421875 0.03125 C 17.023438 0.507812 15.390625 0.75 13.515625 0.75 Z M 13.515625 0.75 "/></g></g></g><g fill="#054937" fill-opacity="1"><g transform="translate(278.403836, 77.001614)"><g><path d="M 9.765625 0 L 5.4375 0 L 0.375 -19.53125 L 6.953125 -19.53125 L 10.328125 -5.4375 L 11.453125 -5.4375 L 15.203125 -19.53125 L 21.78125 -19.53125 L 14.265625 7.140625 L 7.703125 7.140625 Z M 9.765625 0 "/></g></g></g><g fill="#054937" fill-opacity="1"><g transform="translate(297.438992, 77.001614)"><g><path d="M 10.703125 0.5625 C 9.597656 0.5625 8.609375 0.460938 7.734375 0.265625 C 6.859375 0.0664062 6.082031 -0.191406 5.40625 -0.515625 C 4.726562 -0.847656 4.144531 -1.21875 3.65625 -1.625 C 3.164062 -2.039062 2.75 -2.460938 2.40625 -2.890625 C 1.570312 -3.890625 1.019531 -5.054688 0.75 -6.390625 L 7.140625 -6.390625 C 7.265625 -5.984375 7.472656 -5.628906 7.765625 -5.328125 C 8.046875 -5.054688 8.414062 -4.816406 8.875 -4.609375 C 9.34375 -4.410156 9.953125 -4.3125 10.703125 -4.3125 C 11.648438 -4.3125 12.320312 -4.4375 12.71875 -4.6875 C 13.125 -4.9375 13.328125 -5.25 13.328125 -5.625 C 13.328125 -6.050781 13.039062 -6.390625 12.46875 -6.640625 C 11.894531 -6.890625 11.175781 -7.113281 10.3125 -7.3125 C 9.445312 -7.519531 8.507812 -7.753906 7.5 -8.015625 C 6.5 -8.273438 5.566406 -8.648438 4.703125 -9.140625 C 3.847656 -9.628906 3.128906 -10.257812 2.546875 -11.03125 C 1.972656 -11.8125 1.6875 -12.828125 1.6875 -14.078125 C 1.6875 -14.859375 1.859375 -15.601562 2.203125 -16.3125 C 2.554688 -17.03125 3.082031 -17.671875 3.78125 -18.234375 C 4.488281 -18.796875 5.367188 -19.242188 6.421875 -19.578125 C 7.472656 -19.921875 8.710938 -20.09375 10.140625 -20.09375 C 11.191406 -20.09375 12.132812 -20 12.96875 -19.8125 C 13.8125 -19.625 14.554688 -19.367188 15.203125 -19.046875 C 15.859375 -18.734375 16.414062 -18.378906 16.875 -17.984375 C 17.34375 -17.585938 17.75 -17.1875 18.09375 -16.78125 C 18.875 -15.800781 19.414062 -14.710938 19.71875 -13.515625 L 13.515625 -13.515625 C 13.410156 -13.867188 13.234375 -14.179688 12.984375 -14.453125 C 12.785156 -14.679688 12.484375 -14.894531 12.078125 -15.09375 C 11.679688 -15.289062 11.160156 -15.390625 10.515625 -15.390625 C 9.765625 -15.390625 9.203125 -15.265625 8.828125 -15.015625 C 8.453125 -14.765625 8.265625 -14.453125 8.265625 -14.078125 C 8.265625 -13.628906 8.550781 -13.289062 9.125 -13.0625 C 9.695312 -12.84375 10.414062 -12.640625 11.28125 -12.453125 C 12.144531 -12.265625 13.078125 -12.046875 14.078125 -11.796875 C 15.078125 -11.546875 16.007812 -11.1875 16.875 -10.71875 C 17.738281 -10.257812 18.457031 -9.640625 19.03125 -8.859375 C 19.613281 -8.085938 19.90625 -7.070312 19.90625 -5.8125 C 19.90625 -4.96875 19.710938 -4.160156 19.328125 -3.390625 C 18.953125 -2.628906 18.382812 -1.953125 17.625 -1.359375 C 16.863281 -0.773438 15.90625 -0.3125 14.75 0.03125 C 13.601562 0.382812 12.253906 0.5625 10.703125 0.5625 Z M 10.703125 0.5625 "/></g></g></g><g fill="#054937" fill-opacity="1"><g transform="translate(315.723232, 77.001614)"><g><path d="M 3 -14.453125 L 0.5625 -14.453125 L 0.5625 -19.53125 L 3 -19.53125 L 3 -23.65625 L 9.390625 -23.65625 L 9.390625 -19.53125 L 14.453125 -19.53125 L 14.453125 -14.453125 L 9.390625 -14.453125 L 9.390625 -5.0625 L 14.828125 -5.0625 L 14.828125 0 L 3 0 Z M 3 -14.453125 "/></g></g></g><g fill="#054937" fill-opacity="1"><g transform="translate(328.938841, 77.001614)"><g><path d="M 11.640625 0.5625 C 10.140625 0.5625 8.738281 0.285156 7.4375 -0.265625 C 6.132812 -0.816406 5 -1.5625 4.03125 -2.5 C 3.070312 -3.4375 2.316406 -4.53125 1.765625 -5.78125 C 1.210938 -7.03125 0.9375 -8.359375 0.9375 -9.765625 C 0.9375 -11.160156 1.210938 -12.484375 1.765625 -13.734375 C 2.316406 -14.992188 3.070312 -16.09375 4.03125 -17.03125 C 5 -17.96875 6.132812 -18.710938 7.4375 -19.265625 C 8.738281 -19.816406 10.140625 -20.09375 11.640625 -20.09375 C 13.191406 -20.09375 14.617188 -19.816406 15.921875 -19.265625 C 17.222656 -18.710938 18.347656 -17.96875 19.296875 -17.03125 C 20.242188 -16.09375 20.988281 -14.992188 21.53125 -13.734375 C 22.070312 -12.484375 22.34375 -11.160156 22.34375 -9.765625 L 22.34375 -8.640625 L 7.515625 -8.640625 C 7.710938 -7.304688 8.164062 -6.28125 8.875 -5.5625 C 9.59375 -4.851562 10.515625 -4.5 11.640625 -4.5 C 12.390625 -4.5 13.007812 -4.597656 13.5 -4.796875 C 13.988281 -5.003906 14.367188 -5.242188 14.640625 -5.515625 C 14.960938 -5.816406 15.210938 -6.171875 15.390625 -6.578125 L 22.15625 -6.578125 C 21.707031 -5.222656 21.03125 -4.03125 20.125 -3 C 19.75 -2.550781 19.289062 -2.113281 18.75 -1.6875 C 18.21875 -1.257812 17.601562 -0.875 16.90625 -0.53125 C 16.21875 -0.195312 15.4375 0.0664062 14.5625 0.265625 C 13.6875 0.460938 12.710938 0.5625 11.640625 0.5625 Z M 15.578125 -11.828125 C 15.378906 -12.679688 14.9375 -13.425781 14.25 -14.0625 C 13.5625 -14.695312 12.691406 -15.015625 11.640625 -15.015625 C 10.585938 -15.015625 9.71875 -14.695312 9.03125 -14.0625 C 8.34375 -13.425781 7.898438 -12.679688 7.703125 -11.828125 Z M 15.578125 -11.828125 "/></g></g></g><g fill="#054937" fill-opacity="1"><g transform="translate(349.851266, 77.001614)"><g><path d="M 1.875 -19.53125 L 8.265625 -19.53125 L 8.265625 -16.890625 L 8.640625 -16.890625 C 8.960938 -17.492188 9.382812 -18.019531 9.90625 -18.46875 C 10.363281 -18.875 10.941406 -19.242188 11.640625 -19.578125 C 12.335938 -19.921875 13.210938 -20.09375 14.265625 -20.09375 C 15.492188 -20.09375 16.5 -19.90625 17.28125 -19.53125 C 18.070312 -19.15625 18.707031 -18.738281 19.1875 -18.28125 C 19.738281 -17.757812 20.164062 -17.171875 20.46875 -16.515625 L 20.84375 -16.515625 C 21.144531 -17.171875 21.554688 -17.757812 22.078125 -18.28125 C 22.523438 -18.738281 23.128906 -19.15625 23.890625 -19.53125 C 24.660156 -19.90625 25.644531 -20.09375 26.84375 -20.09375 C 29.125 -20.09375 30.914062 -19.410156 32.21875 -18.046875 C 33.519531 -16.679688 34.171875 -14.671875 34.171875 -12.015625 L 34.171875 0 L 27.78125 0 L 27.78125 -11.078125 C 27.78125 -12.304688 27.515625 -13.207031 26.984375 -13.78125 C 26.460938 -14.351562 25.726562 -14.640625 24.78125 -14.640625 C 23.726562 -14.640625 22.867188 -14.28125 22.203125 -13.5625 C 21.546875 -12.851562 21.21875 -11.835938 21.21875 -10.515625 L 21.21875 0 L 14.828125 0 L 14.828125 -11.078125 C 14.828125 -12.304688 14.5625 -13.207031 14.03125 -13.78125 C 13.507812 -14.351562 12.773438 -14.640625 11.828125 -14.640625 C 10.773438 -14.640625 9.914062 -14.28125 9.25 -13.5625 C 8.59375 -12.851562 8.265625 -11.835938 8.265625 -10.515625 L 8.265625 0 L 1.875 0 Z M 1.875 -19.53125 "/></g></g></g><g fill="#054937" fill-opacity="1"><g transform="translate(0.63398, 108.79035)"><g><path d="M 12.46875 -3.953125 L 4.71875 -3.953125 L 3.296875 0 L 0.84375 0 L 7.265625 -17.671875 L 9.9375 -17.671875 L 16.34375 0 L 13.890625 0 Z M 11.8125 -5.84375 L 8.59375 -14.8125 L 5.375 -5.84375 Z M 11.8125 -5.84375 "/></g></g></g><g fill="#054937" fill-opacity="1"><g transform="translate(16.08301, 108.79035)"><g><path d="M 1.09375 -7.015625 C 1.09375 -8.460938 1.378906 -9.722656 1.953125 -10.796875 C 2.535156 -11.878906 3.34375 -12.71875 4.375 -13.3125 C 5.40625 -13.90625 6.582031 -14.203125 7.90625 -14.203125 C 9.625 -14.203125 11.039062 -13.785156 12.15625 -12.953125 C 13.269531 -12.117188 14.003906 -10.960938 14.359375 -9.484375 L 11.859375 -9.484375 C 11.617188 -10.335938 11.15625 -11.007812 10.46875 -11.5 C 9.78125 -11.988281 8.925781 -12.234375 7.90625 -12.234375 C 6.582031 -12.234375 5.507812 -11.78125 4.6875 -10.875 C 3.875 -9.96875 3.46875 -8.679688 3.46875 -7.015625 C 3.46875 -5.328125 3.875 -4.023438 4.6875 -3.109375 C 5.507812 -2.191406 6.582031 -1.734375 7.90625 -1.734375 C 8.925781 -1.734375 9.773438 -1.96875 10.453125 -2.4375 C 11.128906 -2.914062 11.597656 -3.597656 11.859375 -4.484375 L 14.359375 -4.484375 C 13.984375 -3.054688 13.234375 -1.910156 12.109375 -1.046875 C 10.984375 -0.191406 9.582031 0.234375 7.90625 0.234375 C 6.582031 0.234375 5.40625 -0.0625 4.375 -0.65625 C 3.34375 -1.257812 2.535156 -2.101562 1.953125 -3.1875 C 1.378906 -4.269531 1.09375 -5.546875 1.09375 -7.015625 Z M 1.09375 -7.015625 "/></g></g></g><g fill="#054937" fill-opacity="1"><g transform="translate(29.823906, 108.79035)"><g><path d="M 1.09375 -7.015625 C 1.09375 -8.460938 1.378906 -9.722656 1.953125 -10.796875 C 2.535156 -11.878906 3.34375 -12.71875 4.375 -13.3125 C 5.40625 -13.90625 6.582031 -14.203125 7.90625 -14.203125 C 9.625 -14.203125 11.039062 -13.785156 12.15625 -12.953125 C 13.269531 -12.117188 14.003906 -10.960938 14.359375 -9.484375 L 11.859375 -9.484375 C 11.617188 -10.335938 11.15625 -11.007812 10.46875 -11.5 C 9.78125 -11.988281 8.925781 -12.234375 7.90625 -12.234375 C 6.582031 -12.234375 5.507812 -11.78125 4.6875 -10.875 C 3.875 -9.96875 3.46875 -8.679688 3.46875 -7.015625 C 3.46875 -5.328125 3.875 -4.023438 4.6875 -3.109375 C 5.507812 -2.191406 6.582031 -1.734375 7.90625 -1.734375 C 8.925781 -1.734375 9.773438 -1.96875 10.453125 -2.4375 C 11.128906 -2.914062 11.597656 -3.597656 11.859375 -4.484375 L 14.359375 -4.484375 C 13.984375 -3.054688 13.234375 -1.910156 12.109375 -1.046875 C 10.984375 -0.191406 9.582031 0.234375 7.90625 0.234375 C 6.582031 0.234375 5.40625 -0.0625 4.375 -0.65625 C 3.34375 -1.257812 2.535156 -2.101562 1.953125 -3.1875 C 1.378906 -4.269531 1.09375 -5.546875 1.09375 -7.015625 Z M 1.09375 -7.015625 "/></g></g></g><g fill="#054937" fill-opacity="1"><g transform="translate(43.564801, 108.79035)"><g><path d="M 14.71875 -7.515625 C 14.71875 -7.078125 14.691406 -6.613281 14.640625 -6.125 L 3.46875 -6.125 C 3.550781 -4.738281 4.019531 -3.660156 4.875 -2.890625 C 5.738281 -2.117188 6.78125 -1.734375 8 -1.734375 C 9.007812 -1.734375 9.847656 -1.96875 10.515625 -2.4375 C 11.191406 -2.90625 11.664062 -3.53125 11.9375 -4.3125 L 14.4375 -4.3125 C 14.0625 -2.96875 13.3125 -1.875 12.1875 -1.03125 C 11.0625 -0.1875 9.664062 0.234375 8 0.234375 C 6.675781 0.234375 5.488281 -0.0625 4.4375 -0.65625 C 3.394531 -1.257812 2.578125 -2.109375 1.984375 -3.203125 C 1.390625 -4.296875 1.09375 -5.566406 1.09375 -7.015625 C 1.09375 -8.460938 1.378906 -9.726562 1.953125 -10.8125 C 2.535156 -11.894531 3.347656 -12.726562 4.390625 -13.3125 C 5.441406 -13.90625 6.644531 -14.203125 8 -14.203125 C 9.332031 -14.203125 10.507812 -13.910156 11.53125 -13.328125 C 12.550781 -12.753906 13.335938 -11.960938 13.890625 -10.953125 C 14.441406 -9.941406 14.71875 -8.796875 14.71875 -7.515625 Z M 12.3125 -8 C 12.3125 -8.882812 12.113281 -9.644531 11.71875 -10.28125 C 11.332031 -10.925781 10.800781 -11.410156 10.125 -11.734375 C 9.457031 -12.066406 8.71875 -12.234375 7.90625 -12.234375 C 6.726562 -12.234375 5.726562 -11.859375 4.90625 -11.109375 C 4.082031 -10.367188 3.613281 -9.332031 3.5 -8 Z M 12.3125 -8 "/></g></g></g><g fill="#054937" fill-opacity="1"><g transform="translate(57.637126, 108.79035)"><g><path d="M 6.90625 0.234375 C 5.832031 0.234375 4.867188 0.0507812 4.015625 -0.3125 C 3.171875 -0.675781 2.503906 -1.1875 2.015625 -1.84375 C 1.523438 -2.5 1.253906 -3.253906 1.203125 -4.109375 L 3.59375 -4.109375 C 3.664062 -3.410156 3.992188 -2.835938 4.578125 -2.390625 C 5.160156 -1.953125 5.929688 -1.734375 6.890625 -1.734375 C 7.773438 -1.734375 8.46875 -1.925781 8.96875 -2.3125 C 9.476562 -2.707031 9.734375 -3.203125 9.734375 -3.796875 C 9.734375 -4.410156 9.460938 -4.863281 8.921875 -5.15625 C 8.378906 -5.457031 7.539062 -5.753906 6.40625 -6.046875 C 5.363281 -6.316406 4.515625 -6.59375 3.859375 -6.875 C 3.203125 -7.15625 2.640625 -7.570312 2.171875 -8.125 C 1.710938 -8.675781 1.484375 -9.398438 1.484375 -10.296875 C 1.484375 -11.015625 1.691406 -11.671875 2.109375 -12.265625 C 2.535156 -12.859375 3.140625 -13.328125 3.921875 -13.671875 C 4.703125 -14.023438 5.597656 -14.203125 6.609375 -14.203125 C 8.148438 -14.203125 9.394531 -13.8125 10.34375 -13.03125 C 11.300781 -12.25 11.816406 -11.175781 11.890625 -9.8125 L 9.5625 -9.8125 C 9.507812 -10.539062 9.210938 -11.125 8.671875 -11.5625 C 8.140625 -12.007812 7.425781 -12.234375 6.53125 -12.234375 C 5.695312 -12.234375 5.03125 -12.054688 4.53125 -11.703125 C 4.039062 -11.347656 3.796875 -10.878906 3.796875 -10.296875 C 3.796875 -9.835938 3.941406 -9.457031 4.234375 -9.15625 C 4.535156 -8.863281 4.910156 -8.628906 5.359375 -8.453125 C 5.816406 -8.273438 6.441406 -8.078125 7.234375 -7.859375 C 8.242188 -7.585938 9.0625 -7.316406 9.6875 -7.046875 C 10.320312 -6.785156 10.863281 -6.390625 11.3125 -5.859375 C 11.757812 -5.335938 11.992188 -4.648438 12.015625 -3.796875 C 12.015625 -3.035156 11.800781 -2.347656 11.375 -1.734375 C 10.945312 -1.117188 10.347656 -0.632812 9.578125 -0.28125 C 8.804688 0.0625 7.914062 0.234375 6.90625 0.234375 Z M 6.90625 0.234375 "/></g></g></g><g fill="#054937" fill-opacity="1"><g transform="translate(69.210991, 108.79035)"><g><path d="M 6.90625 0.234375 C 5.832031 0.234375 4.867188 0.0507812 4.015625 -0.3125 C 3.171875 -0.675781 2.503906 -1.1875 2.015625 -1.84375 C 1.523438 -2.5 1.253906 -3.253906 1.203125 -4.109375 L 3.59375 -4.109375 C 3.664062 -3.410156 3.992188 -2.835938 4.578125 -2.390625 C 5.160156 -1.953125 5.929688 -1.734375 6.890625 -1.734375 C 7.773438 -1.734375 8.46875 -1.925781 8.96875 -2.3125 C 9.476562 -2.707031 9.734375 -3.203125 9.734375 -3.796875 C 9.734375 -4.410156 9.460938 -4.863281 8.921875 -5.15625 C 8.378906 -5.457031 7.539062 -5.753906 6.40625 -6.046875 C 5.363281 -6.316406 4.515625 -6.59375 3.859375 -6.875 C 3.203125 -7.15625 2.640625 -7.570312 2.171875 -8.125 C 1.710938 -8.675781 1.484375 -9.398438 1.484375 -10.296875 C 1.484375 -11.015625 1.691406 -11.671875 2.109375 -12.265625 C 2.535156 -12.859375 3.140625 -13.328125 3.921875 -13.671875 C 4.703125 -14.023438 5.597656 -14.203125 6.609375 -14.203125 C 8.148438 -14.203125 9.394531 -13.8125 10.34375 -13.03125 C 11.300781 -12.25 11.816406 -11.175781 11.890625 -9.8125 L 9.5625 -9.8125 C 9.507812 -10.539062 9.210938 -11.125 8.671875 -11.5625 C 8.140625 -12.007812 7.425781 -12.234375 6.53125 -12.234375 C 5.695312 -12.234375 5.03125 -12.054688 4.53125 -11.703125 C 4.039062 -11.347656 3.796875 -10.878906 3.796875 -10.296875 C 3.796875 -9.835938 3.941406 -9.457031 4.234375 -9.15625 C 4.535156 -8.863281 4.910156 -8.628906 5.359375 -8.453125 C 5.816406 -8.273438 6.441406 -8.078125 7.234375 -7.859375 C 8.242188 -7.585938 9.0625 -7.316406 9.6875 -7.046875 C 10.320312 -6.785156 10.863281 -6.390625 11.3125 -5.859375 C 11.757812 -5.335938 11.992188 -4.648438 12.015625 -3.796875 C 12.015625 -3.035156 11.800781 -2.347656 11.375 -1.734375 C 10.945312 -1.117188 10.347656 -0.632812 9.578125 -0.28125 C 8.804688 0.0625 7.914062 0.234375 6.90625 0.234375 Z M 6.90625 0.234375 "/></g></g></g><g fill="#054937" fill-opacity="1"><g transform="translate(80.784856, 108.79035)"><g/></g></g><g fill="#054937" fill-opacity="1"><g transform="translate(85.857636, 108.79035)"><g><path d="M 4.796875 -12.0625 L 4.796875 -3.828125 C 4.796875 -3.148438 4.9375 -2.671875 5.21875 -2.390625 C 5.507812 -2.109375 6.015625 -1.96875 6.734375 -1.96875 L 8.4375 -1.96875 L 8.4375 0 L 6.34375 0 C 5.050781 0 4.082031 -0.296875 3.4375 -0.890625 C 2.789062 -1.484375 2.46875 -2.460938 2.46875 -3.828125 L 2.46875 -12.0625 L 0.65625 -12.0625 L 0.65625 -13.96875 L 2.46875 -13.96875 L 2.46875 -17.5 L 4.796875 -17.5 L 4.796875 -13.96875 L 8.4375 -13.96875 L 8.4375 -12.0625 Z M 4.796875 -12.0625 "/></g></g></g><g fill="#054937" fill-opacity="1"><g transform="translate(93.403375, 108.79035)"><g><path d="M 8.0625 0.234375 C 6.75 0.234375 5.5625 -0.0625 4.5 -0.65625 C 3.4375 -1.257812 2.601562 -2.109375 2 -3.203125 C 1.394531 -4.296875 1.09375 -5.566406 1.09375 -7.015625 C 1.09375 -8.441406 1.398438 -9.703125 2.015625 -10.796875 C 2.640625 -11.890625 3.488281 -12.726562 4.5625 -13.3125 C 5.632812 -13.90625 6.832031 -14.203125 8.15625 -14.203125 C 9.488281 -14.203125 10.6875 -13.90625 11.75 -13.3125 C 12.820312 -12.726562 13.664062 -11.894531 14.28125 -10.8125 C 14.90625 -9.726562 15.21875 -8.460938 15.21875 -7.015625 C 15.21875 -5.566406 14.898438 -4.296875 14.265625 -3.203125 C 13.628906 -2.109375 12.765625 -1.257812 11.671875 -0.65625 C 10.585938 -0.0625 9.382812 0.234375 8.0625 0.234375 Z M 8.0625 -1.8125 C 8.894531 -1.8125 9.675781 -2.003906 10.40625 -2.390625 C 11.132812 -2.785156 11.722656 -3.375 12.171875 -4.15625 C 12.628906 -4.9375 12.859375 -5.890625 12.859375 -7.015625 C 12.859375 -8.140625 12.632812 -9.09375 12.1875 -9.875 C 11.75 -10.65625 11.171875 -11.234375 10.453125 -11.609375 C 9.742188 -11.992188 8.972656 -12.1875 8.140625 -12.1875 C 7.285156 -12.1875 6.503906 -11.992188 5.796875 -11.609375 C 5.097656 -11.234375 4.535156 -10.65625 4.109375 -9.875 C 3.679688 -9.09375 3.46875 -8.140625 3.46875 -7.015625 C 3.46875 -5.867188 3.675781 -4.90625 4.09375 -4.125 C 4.507812 -3.34375 5.066406 -2.757812 5.765625 -2.375 C 6.460938 -2 7.226562 -1.8125 8.0625 -1.8125 Z M 8.0625 -1.8125 "/></g></g></g><g fill="#054937" fill-opacity="1"><g transform="translate(107.985591, 108.79035)"><g/></g></g><g fill="#054937" fill-opacity="1"><g transform="translate(113.058371, 108.79035)"><g><path d="M 8.90625 -14.234375 C 9.957031 -14.234375 10.90625 -14.003906 11.75 -13.546875 C 12.601562 -13.097656 13.269531 -12.421875 13.75 -11.515625 C 14.238281 -10.617188 14.484375 -9.523438 14.484375 -8.234375 L 14.484375 0 L 12.1875 0 L 12.1875 -7.90625 C 12.1875 -9.300781 11.835938 -10.367188 11.140625 -11.109375 C 10.441406 -11.847656 9.488281 -12.21875 8.28125 -12.21875 C 7.0625 -12.21875 6.085938 -11.832031 5.359375 -11.0625 C 4.640625 -10.300781 4.28125 -9.1875 4.28125 -7.71875 L 4.28125 0 L 1.96875 0 L 1.96875 -18.875 L 4.28125 -18.875 L 4.28125 -11.984375 C 4.738281 -12.703125 5.367188 -13.253906 6.171875 -13.640625 C 6.984375 -14.035156 7.894531 -14.234375 8.90625 -14.234375 Z M 8.90625 -14.234375 "/></g></g></g><g fill="#054937" fill-opacity="1"><g transform="translate(127.640587, 108.79035)"><g><path d="M 14.71875 -7.515625 C 14.71875 -7.078125 14.691406 -6.613281 14.640625 -6.125 L 3.46875 -6.125 C 3.550781 -4.738281 4.019531 -3.660156 4.875 -2.890625 C 5.738281 -2.117188 6.78125 -1.734375 8 -1.734375 C 9.007812 -1.734375 9.847656 -1.96875 10.515625 -2.4375 C 11.191406 -2.90625 11.664062 -3.53125 11.9375 -4.3125 L 14.4375 -4.3125 C 14.0625 -2.96875 13.3125 -1.875 12.1875 -1.03125 C 11.0625 -0.1875 9.664062 0.234375 8 0.234375 C 6.675781 0.234375 5.488281 -0.0625 4.4375 -0.65625 C 3.394531 -1.257812 2.578125 -2.109375 1.984375 -3.203125 C 1.390625 -4.296875 1.09375 -5.566406 1.09375 -7.015625 C 1.09375 -8.460938 1.378906 -9.726562 1.953125 -10.8125 C 2.535156 -11.894531 3.347656 -12.726562 4.390625 -13.3125 C 5.441406 -13.90625 6.644531 -14.203125 8 -14.203125 C 9.332031 -14.203125 10.507812 -13.910156 11.53125 -13.328125 C 12.550781 -12.753906 13.335938 -11.960938 13.890625 -10.953125 C 14.441406 -9.941406 14.71875 -8.796875 14.71875 -7.515625 Z M 12.3125 -8 C 12.3125 -8.882812 12.113281 -9.644531 11.71875 -10.28125 C 11.332031 -10.925781 10.800781 -11.410156 10.125 -11.734375 C 9.457031 -12.066406 8.71875 -12.234375 7.90625 -12.234375 C 6.726562 -12.234375 5.726562 -11.859375 4.90625 -11.109375 C 4.082031 -10.367188 3.613281 -9.332031 3.5 -8 Z M 12.3125 -8 "/></g></g></g><g fill="#054937" fill-opacity="1"><g transform="translate(141.712912, 108.79035)"><g><path d="M 1.09375 -7.03125 C 1.09375 -8.46875 1.378906 -9.722656 1.953125 -10.796875 C 2.535156 -11.878906 3.332031 -12.71875 4.34375 -13.3125 C 5.351562 -13.90625 6.476562 -14.203125 7.71875 -14.203125 C 8.945312 -14.203125 10.007812 -13.9375 10.90625 -13.40625 C 11.8125 -12.882812 12.484375 -12.222656 12.921875 -11.421875 L 12.921875 -13.96875 L 15.28125 -13.96875 L 15.28125 0 L 12.921875 0 L 12.921875 -2.59375 C 12.460938 -1.78125 11.78125 -1.101562 10.875 -0.5625 C 9.96875 -0.03125 8.910156 0.234375 7.703125 0.234375 C 6.460938 0.234375 5.335938 -0.0703125 4.328125 -0.6875 C 3.328125 -1.300781 2.535156 -2.160156 1.953125 -3.265625 C 1.378906 -4.367188 1.09375 -5.625 1.09375 -7.03125 Z M 12.921875 -7.015625 C 12.921875 -8.066406 12.707031 -8.984375 12.28125 -9.765625 C 11.863281 -10.546875 11.289062 -11.144531 10.5625 -11.5625 C 9.84375 -11.976562 9.050781 -12.1875 8.1875 -12.1875 C 7.320312 -12.1875 6.53125 -11.984375 5.8125 -11.578125 C 5.101562 -11.171875 4.535156 -10.578125 4.109375 -9.796875 C 3.679688 -9.015625 3.46875 -8.09375 3.46875 -7.03125 C 3.46875 -5.96875 3.679688 -5.039062 4.109375 -4.25 C 4.535156 -3.457031 5.101562 -2.851562 5.8125 -2.4375 C 6.53125 -2.019531 7.320312 -1.8125 8.1875 -1.8125 C 9.050781 -1.8125 9.84375 -2.019531 10.5625 -2.4375 C 11.289062 -2.851562 11.863281 -3.457031 12.28125 -4.25 C 12.707031 -5.039062 12.921875 -5.960938 12.921875 -7.015625 Z M 12.921875 -7.015625 "/></g></g></g><g fill="#054937" fill-opacity="1"><g transform="translate(157.212936, 108.79035)"><g><path d="M 4.28125 -18.875 L 4.28125 0 L 1.96875 0 L 1.96875 -18.875 Z M 4.28125 -18.875 "/></g></g></g><g fill="#054937" fill-opacity="1"><g transform="translate(161.750325, 108.79035)"><g><path d="M 4.796875 -12.0625 L 4.796875 -3.828125 C 4.796875 -3.148438 4.9375 -2.671875 5.21875 -2.390625 C 5.507812 -2.109375 6.015625 -1.96875 6.734375 -1.96875 L 8.4375 -1.96875 L 8.4375 0 L 6.34375 0 C 5.050781 0 4.082031 -0.296875 3.4375 -0.890625 C 2.789062 -1.484375 2.46875 -2.460938 2.46875 -3.828125 L 2.46875 -12.0625 L 0.65625 -12.0625 L 0.65625 -13.96875 L 2.46875 -13.96875 L 2.46875 -17.5 L 4.796875 -17.5 L 4.796875 -13.96875 L 8.4375 -13.96875 L 8.4375 -12.0625 Z M 4.796875 -12.0625 "/></g></g></g><g fill="#054937" fill-opacity="1"><g transform="translate(169.296056, 108.79035)"><g><path d="M 8.90625 -14.234375 C 9.957031 -14.234375 10.90625 -14.003906 11.75 -13.546875 C 12.601562 -13.097656 13.269531 -12.421875 13.75 -11.515625 C 14.238281 -10.617188 14.484375 -9.523438 14.484375 -8.234375 L 14.484375 0 L 12.1875 0 L 12.1875 -7.90625 C 12.1875 -9.300781 11.835938 -10.367188 11.140625 -11.109375 C 10.441406 -11.847656 9.488281 -12.21875 8.28125 -12.21875 C 7.0625 -12.21875 6.085938 -11.832031 5.359375 -11.0625 C 4.640625 -10.300781 4.28125 -9.1875 4.28125 -7.71875 L 4.28125 0 L 1.96875 0 L 1.96875 -18.875 L 4.28125 -18.875 L 4.28125 -11.984375 C 4.738281 -12.703125 5.367188 -13.253906 6.171875 -13.640625 C 6.984375 -14.035156 7.894531 -14.234375 8.90625 -14.234375 Z M 8.90625 -14.234375 "/></g></g></g><g fill="#054937" fill-opacity="1"><g transform="translate(183.878288, 108.79035)"><g><path d="M 1.09375 -7.015625 C 1.09375 -8.460938 1.378906 -9.722656 1.953125 -10.796875 C 2.535156 -11.878906 3.34375 -12.71875 4.375 -13.3125 C 5.40625 -13.90625 6.582031 -14.203125 7.90625 -14.203125 C 9.625 -14.203125 11.039062 -13.785156 12.15625 -12.953125 C 13.269531 -12.117188 14.003906 -10.960938 14.359375 -9.484375 L 11.859375 -9.484375 C 11.617188 -10.335938 11.15625 -11.007812 10.46875 -11.5 C 9.78125 -11.988281 8.925781 -12.234375 7.90625 -12.234375 C 6.582031 -12.234375 5.507812 -11.78125 4.6875 -10.875 C 3.875 -9.96875 3.46875 -8.679688 3.46875 -7.015625 C 3.46875 -5.328125 3.875 -4.023438 4.6875 -3.109375 C 5.507812 -2.191406 6.582031 -1.734375 7.90625 -1.734375 C 8.925781 -1.734375 9.773438 -1.96875 10.453125 -2.4375 C 11.128906 -2.914062 11.597656 -3.597656 11.859375 -4.484375 L 14.359375 -4.484375 C 13.984375 -3.054688 13.234375 -1.910156 12.109375 -1.046875 C 10.984375 -0.191406 9.582031 0.234375 7.90625 0.234375 C 6.582031 0.234375 5.40625 -0.0625 4.375 -0.65625 C 3.34375 -1.257812 2.535156 -2.101562 1.953125 -3.1875 C 1.378906 -4.269531 1.09375 -5.546875 1.09375 -7.015625 Z M 1.09375 -7.015625 "/></g></g></g><g fill="#054937" fill-opacity="1"><g transform="translate(197.619175, 108.79035)"><g><path d="M 1.09375 -7.03125 C 1.09375 -8.46875 1.378906 -9.722656 1.953125 -10.796875 C 2.535156 -11.878906 3.332031 -12.71875 4.34375 -13.3125 C 5.351562 -13.90625 6.476562 -14.203125 7.71875 -14.203125 C 8.945312 -14.203125 10.007812 -13.9375 10.90625 -13.40625 C 11.8125 -12.882812 12.484375 -12.222656 12.921875 -11.421875 L 12.921875 -13.96875 L 15.28125 -13.96875 L 15.28125 0 L 12.921875 0 L 12.921875 -2.59375 C 12.460938 -1.78125 11.78125 -1.101562 10.875 -0.5625 C 9.96875 -0.03125 8.910156 0.234375 7.703125 0.234375 C 6.460938 0.234375 5.335938 -0.0703125 4.328125 -0.6875 C 3.328125 -1.300781 2.535156 -2.160156 1.953125 -3.265625 C 1.378906 -4.367188 1.09375 -5.625 1.09375 -7.03125 Z M 12.921875 -7.015625 C 12.921875 -8.066406 12.707031 -8.984375 12.28125 -9.765625 C 11.863281 -10.546875 11.289062 -11.144531 10.5625 -11.5625 C 9.84375 -11.976562 9.050781 -12.1875 8.1875 -12.1875 C 7.320312 -12.1875 6.53125 -11.984375 5.8125 -11.578125 C 5.101562 -11.171875 4.535156 -10.578125 4.109375 -9.796875 C 3.679688 -9.015625 3.46875 -8.09375 3.46875 -7.03125 C 3.46875 -5.96875 3.679688 -5.039062 4.109375 -4.25 C 4.535156 -3.457031 5.101562 -2.851562 5.8125 -2.4375 C 6.53125 -2.019531 7.320312 -1.8125 8.1875 -1.8125 C 9.050781 -1.8125 9.84375 -2.019531 10.5625 -2.4375 C 11.289062 -2.851562 11.863281 -3.457031 12.28125 -4.25 C 12.707031 -5.039062 12.921875 -5.960938 12.921875 -7.015625 Z M 12.921875 -7.015625 "/></g></g></g><g fill="#054937" fill-opacity="1"><g transform="translate(213.119184, 108.79035)"><g><path d="M 4.28125 -11.703125 C 4.6875 -12.503906 5.269531 -13.125 6.03125 -13.5625 C 6.789062 -14.007812 7.710938 -14.234375 8.796875 -14.234375 L 8.796875 -11.828125 L 8.1875 -11.828125 C 5.582031 -11.828125 4.28125 -10.414062 4.28125 -7.59375 L 4.28125 0 L 1.96875 0 L 1.96875 -13.96875 L 4.28125 -13.96875 Z M 4.28125 -11.703125 "/></g></g></g><g fill="#054937" fill-opacity="1"><g transform="translate(220.894387, 108.79035)"><g><path d="M 14.71875 -7.515625 C 14.71875 -7.078125 14.691406 -6.613281 14.640625 -6.125 L 3.46875 -6.125 C 3.550781 -4.738281 4.019531 -3.660156 4.875 -2.890625 C 5.738281 -2.117188 6.78125 -1.734375 8 -1.734375 C 9.007812 -1.734375 9.847656 -1.96875 10.515625 -2.4375 C 11.191406 -2.90625 11.664062 -3.53125 11.9375 -4.3125 L 14.4375 -4.3125 C 14.0625 -2.96875 13.3125 -1.875 12.1875 -1.03125 C 11.0625 -0.1875 9.664062 0.234375 8 0.234375 C 6.675781 0.234375 5.488281 -0.0625 4.4375 -0.65625 C 3.394531 -1.257812 2.578125 -2.109375 1.984375 -3.203125 C 1.390625 -4.296875 1.09375 -5.566406 1.09375 -7.015625 C 1.09375 -8.460938 1.378906 -9.726562 1.953125 -10.8125 C 2.535156 -11.894531 3.347656 -12.726562 4.390625 -13.3125 C 5.441406 -13.90625 6.644531 -14.203125 8 -14.203125 C 9.332031 -14.203125 10.507812 -13.910156 11.53125 -13.328125 C 12.550781 -12.753906 13.335938 -11.960938 13.890625 -10.953125 C 14.441406 -9.941406 14.71875 -8.796875 14.71875 -7.515625 Z M 12.3125 -8 C 12.3125 -8.882812 12.113281 -9.644531 11.71875 -10.28125 C 11.332031 -10.925781 10.800781 -11.410156 10.125 -11.734375 C 9.457031 -12.066406 8.71875 -12.234375 7.90625 -12.234375 C 6.726562 -12.234375 5.726562 -11.859375 4.90625 -11.109375 C 4.082031 -10.367188 3.613281 -9.332031 3.5 -8 Z M 12.3125 -8 "/></g></g></g><g fill="#054937" fill-opacity="1"><g transform="translate(234.966704, 108.79035)"><g/></g></g><g fill="#054937" fill-opacity="1"><g transform="translate(240.039485, 108.79035)"><g><path d="M 3.15625 -16.25 C 2.71875 -16.25 2.34375 -16.398438 2.03125 -16.703125 C 1.726562 -17.003906 1.578125 -17.378906 1.578125 -17.828125 C 1.578125 -18.265625 1.726562 -18.632812 2.03125 -18.9375 C 2.34375 -19.25 2.71875 -19.40625 3.15625 -19.40625 C 3.582031 -19.40625 3.941406 -19.25 4.234375 -18.9375 C 4.535156 -18.632812 4.6875 -18.265625 4.6875 -17.828125 C 4.6875 -17.378906 4.535156 -17.003906 4.234375 -16.703125 C 3.941406 -16.398438 3.582031 -16.25 3.15625 -16.25 Z M 4.28125 -13.96875 L 4.28125 0 L 1.96875 0 L 1.96875 -13.96875 Z M 4.28125 -13.96875 "/></g></g></g><g fill="#054937" fill-opacity="1"><g transform="translate(244.576873, 108.79035)"><g><path d="M 6.90625 0.234375 C 5.832031 0.234375 4.867188 0.0507812 4.015625 -0.3125 C 3.171875 -0.675781 2.503906 -1.1875 2.015625 -1.84375 C 1.523438 -2.5 1.253906 -3.253906 1.203125 -4.109375 L 3.59375 -4.109375 C 3.664062 -3.410156 3.992188 -2.835938 4.578125 -2.390625 C 5.160156 -1.953125 5.929688 -1.734375 6.890625 -1.734375 C 7.773438 -1.734375 8.46875 -1.925781 8.96875 -2.3125 C 9.476562 -2.707031 9.734375 -3.203125 9.734375 -3.796875 C 9.734375 -4.410156 9.460938 -4.863281 8.921875 -5.15625 C 8.378906 -5.457031 7.539062 -5.753906 6.40625 -6.046875 C 5.363281 -6.316406 4.515625 -6.59375 3.859375 -6.875 C 3.203125 -7.15625 2.640625 -7.570312 2.171875 -8.125 C 1.710938 -8.675781 1.484375 -9.398438 1.484375 -10.296875 C 1.484375 -11.015625 1.691406 -11.671875 2.109375 -12.265625 C 2.535156 -12.859375 3.140625 -13.328125 3.921875 -13.671875 C 4.703125 -14.023438 5.597656 -14.203125 6.609375 -14.203125 C 8.148438 -14.203125 9.394531 -13.8125 10.34375 -13.03125 C 11.300781 -12.25 11.816406 -11.175781 11.890625 -9.8125 L 9.5625 -9.8125 C 9.507812 -10.539062 9.210938 -11.125 8.671875 -11.5625 C 8.140625 -12.007812 7.425781 -12.234375 6.53125 -12.234375 C 5.695312 -12.234375 5.03125 -12.054688 4.53125 -11.703125 C 4.039062 -11.347656 3.796875 -10.878906 3.796875 -10.296875 C 3.796875 -9.835938 3.941406 -9.457031 4.234375 -9.15625 C 4.535156 -8.863281 4.910156 -8.628906 5.359375 -8.453125 C 5.816406 -8.273438 6.441406 -8.078125 7.234375 -7.859375 C 8.242188 -7.585938 9.0625 -7.316406 9.6875 -7.046875 C 10.320312 -6.785156 10.863281 -6.390625 11.3125 -5.859375 C 11.757812 -5.335938 11.992188 -4.648438 12.015625 -3.796875 C 12.015625 -3.035156 11.800781 -2.347656 11.375 -1.734375 C 10.945312 -1.117188 10.347656 -0.632812 9.578125 -0.28125 C 8.804688 0.0625 7.914062 0.234375 6.90625 0.234375 Z M 6.90625 0.234375 "/></g></g></g><g fill="#054937" fill-opacity="1"><g transform="translate(256.150745, 108.79035)"><g/></g></g><g fill="#054937" fill-opacity="1"><g transform="translate(261.223526, 108.79035)"><g><path d="M 1.09375 -7.03125 C 1.09375 -8.46875 1.378906 -9.722656 1.953125 -10.796875 C 2.535156 -11.878906 3.332031 -12.71875 4.34375 -13.3125 C 5.351562 -13.90625 6.476562 -14.203125 7.71875 -14.203125 C 8.945312 -14.203125 10.007812 -13.9375 10.90625 -13.40625 C 11.8125 -12.882812 12.484375 -12.222656 12.921875 -11.421875 L 12.921875 -13.96875 L 15.28125 -13.96875 L 15.28125 0 L 12.921875 0 L 12.921875 -2.59375 C 12.460938 -1.78125 11.78125 -1.101562 10.875 -0.5625 C 9.96875 -0.03125 8.910156 0.234375 7.703125 0.234375 C 6.460938 0.234375 5.335938 -0.0703125 4.328125 -0.6875 C 3.328125 -1.300781 2.535156 -2.160156 1.953125 -3.265625 C 1.378906 -4.367188 1.09375 -5.625 1.09375 -7.03125 Z M 12.921875 -7.015625 C 12.921875 -8.066406 12.707031 -8.984375 12.28125 -9.765625 C 11.863281 -10.546875 11.289062 -11.144531 10.5625 -11.5625 C 9.84375 -11.976562 9.050781 -12.1875 8.1875 -12.1875 C 7.320312 -12.1875 6.53125 -11.984375 5.8125 -11.578125 C 5.101562 -11.171875 4.535156 -10.578125 4.109375 -9.796875 C 3.679688 -9.015625 3.46875 -8.09375 3.46875 -7.03125 C 3.46875 -5.96875 3.679688 -5.039062 4.109375 -4.25 C 4.535156 -3.457031 5.101562 -2.851562 5.8125 -2.4375 C 6.53125 -2.019531 7.320312 -1.8125 8.1875 -1.8125 C 9.050781 -1.8125 9.84375 -2.019531 10.5625 -2.4375 C 11.289062 -2.851562 11.863281 -3.457031 12.28125 -4.25 C 12.707031 -5.039062 12.921875 -5.960938 12.921875 -7.015625 Z M 12.921875 -7.015625 "/></g></g></g><g fill="#054937" fill-opacity="1"><g transform="translate(276.723534, 108.79035)"><g/></g></g><g fill="#054937" fill-opacity="1"><g transform="translate(281.796315, 108.79035)"><g><path d="M 6.90625 0.234375 C 5.832031 0.234375 4.867188 0.0507812 4.015625 -0.3125 C 3.171875 -0.675781 2.503906 -1.1875 2.015625 -1.84375 C 1.523438 -2.5 1.253906 -3.253906 1.203125 -4.109375 L 3.59375 -4.109375 C 3.664062 -3.410156 3.992188 -2.835938 4.578125 -2.390625 C 5.160156 -1.953125 5.929688 -1.734375 6.890625 -1.734375 C 7.773438 -1.734375 8.46875 -1.925781 8.96875 -2.3125 C 9.476562 -2.707031 9.734375 -3.203125 9.734375 -3.796875 C 9.734375 -4.410156 9.460938 -4.863281 8.921875 -5.15625 C 8.378906 -5.457031 7.539062 -5.753906 6.40625 -6.046875 C 5.363281 -6.316406 4.515625 -6.59375 3.859375 -6.875 C 3.203125 -7.15625 2.640625 -7.570312 2.171875 -8.125 C 1.710938 -8.675781 1.484375 -9.398438 1.484375 -10.296875 C 1.484375 -11.015625 1.691406 -11.671875 2.109375 -12.265625 C 2.535156 -12.859375 3.140625 -13.328125 3.921875 -13.671875 C 4.703125 -14.023438 5.597656 -14.203125 6.609375 -14.203125 C 8.148438 -14.203125 9.394531 -13.8125 10.34375 -13.03125 C 11.300781 -12.25 11.816406 -11.175781 11.890625 -9.8125 L 9.5625 -9.8125 C 9.507812 -10.539062 9.210938 -11.125 8.671875 -11.5625 C 8.140625 -12.007812 7.425781 -12.234375 6.53125 -12.234375 C 5.695312 -12.234375 5.03125 -12.054688 4.53125 -11.703125 C 4.039062 -11.347656 3.796875 -10.878906 3.796875 -10.296875 C 3.796875 -9.835938 3.941406 -9.457031 4.234375 -9.15625 C 4.535156 -8.863281 4.910156 -8.628906 5.359375 -8.453125 C 5.816406 -8.273438 6.441406 -8.078125 7.234375 -7.859375 C 8.242188 -7.585938 9.0625 -7.316406 9.6875 -7.046875 C 10.320312 -6.785156 10.863281 -6.390625 11.3125 -5.859375 C 11.757812 -5.335938 11.992188 -4.648438 12.015625 -3.796875 C 12.015625 -3.035156 11.800781 -2.347656 11.375 -1.734375 C 10.945312 -1.117188 10.347656 -0.632812 9.578125 -0.28125 C 8.804688 0.0625 7.914062 0.234375 6.90625 0.234375 Z M 6.90625 0.234375 "/></g></g></g><g fill="#054937" fill-opacity="1"><g transform="translate(293.370172, 108.79035)"><g><path d="M 3.15625 -16.25 C 2.71875 -16.25 2.34375 -16.398438 2.03125 -16.703125 C 1.726562 -17.003906 1.578125 -17.378906 1.578125 -17.828125 C 1.578125 -18.265625 1.726562 -18.632812 2.03125 -18.9375 C 2.34375 -19.25 2.71875 -19.40625 3.15625 -19.40625 C 3.582031 -19.40625 3.941406 -19.25 4.234375 -18.9375 C 4.535156 -18.632812 4.6875 -18.265625 4.6875 -17.828125 C 4.6875 -17.378906 4.535156 -17.003906 4.234375 -16.703125 C 3.941406 -16.398438 3.582031 -16.25 3.15625 -16.25 Z M 4.28125 -13.96875 L 4.28125 0 L 1.96875 0 L 1.96875 -13.96875 Z M 4.28125 -13.96875 "/></g></g></g><g fill="#054937" fill-opacity="1"><g transform="translate(297.907576, 108.79035)"><g><path d="M 8.765625 -14.234375 C 10.472656 -14.234375 11.851562 -13.71875 12.90625 -12.6875 C 13.957031 -11.65625 14.484375 -10.171875 14.484375 -8.234375 L 14.484375 0 L 12.1875 0 L 12.1875 -7.90625 C 12.1875 -9.300781 11.835938 -10.367188 11.140625 -11.109375 C 10.441406 -11.847656 9.488281 -12.21875 8.28125 -12.21875 C 7.0625 -12.21875 6.085938 -11.832031 5.359375 -11.0625 C 4.640625 -10.300781 4.28125 -9.1875 4.28125 -7.71875 L 4.28125 0 L 1.96875 0 L 1.96875 -13.96875 L 4.28125 -13.96875 L 4.28125 -11.984375 C 4.738281 -12.703125 5.363281 -13.253906 6.15625 -13.640625 C 6.945312 -14.035156 7.816406 -14.234375 8.765625 -14.234375 Z M 8.765625 -14.234375 "/></g></g></g><g fill="#054937" fill-opacity="1"><g transform="translate(312.489808, 108.79035)"><g><path d="M 7.71875 -14.203125 C 8.925781 -14.203125 9.984375 -13.9375 10.890625 -13.40625 C 11.804688 -12.882812 12.484375 -12.222656 12.921875 -11.421875 L 12.921875 -13.96875 L 15.28125 -13.96875 L 15.28125 0.3125 C 15.28125 1.582031 15.003906 2.710938 14.453125 3.703125 C 13.910156 4.703125 13.132812 5.484375 12.125 6.046875 C 11.113281 6.609375 9.9375 6.890625 8.59375 6.890625 C 6.757812 6.890625 5.226562 6.453125 4 5.578125 C 2.78125 4.710938 2.0625 3.535156 1.84375 2.046875 L 4.125 2.046875 C 4.382812 2.890625 4.910156 3.570312 5.703125 4.09375 C 6.503906 4.613281 7.46875 4.875 8.59375 4.875 C 9.863281 4.875 10.898438 4.472656 11.703125 3.671875 C 12.515625 2.867188 12.921875 1.75 12.921875 0.3125 L 12.921875 -2.625 C 12.460938 -1.8125 11.78125 -1.128906 10.875 -0.578125 C 9.976562 -0.0351562 8.925781 0.234375 7.71875 0.234375 C 6.476562 0.234375 5.351562 -0.0703125 4.34375 -0.6875 C 3.332031 -1.300781 2.535156 -2.160156 1.953125 -3.265625 C 1.378906 -4.367188 1.09375 -5.625 1.09375 -7.03125 C 1.09375 -8.46875 1.378906 -9.722656 1.953125 -10.796875 C 2.535156 -11.878906 3.332031 -12.71875 4.34375 -13.3125 C 5.351562 -13.90625 6.476562 -14.203125 7.71875 -14.203125 Z M 12.921875 -7.015625 C 12.921875 -8.066406 12.707031 -8.984375 12.28125 -9.765625 C 11.863281 -10.546875 11.289062 -11.144531 10.5625 -11.5625 C 9.84375 -11.976562 9.050781 -12.1875 8.1875 -12.1875 C 7.320312 -12.1875 6.53125 -11.984375 5.8125 -11.578125 C 5.101562 -11.171875 4.535156 -10.578125 4.109375 -9.796875 C 3.679688 -9.015625 3.46875 -8.09375 3.46875 -7.03125 C 3.46875 -5.96875 3.679688 -5.039062 4.109375 -4.25 C 4.535156 -3.457031 5.101562 -2.851562 5.8125 -2.4375 C 6.53125 -2.019531 7.320312 -1.8125 8.1875 -1.8125 C 9.050781 -1.8125 9.84375 -2.019531 10.5625 -2.4375 C 11.289062 -2.851562 11.863281 -3.457031 12.28125 -4.25 C 12.707031 -5.039062 12.921875 -5.960938 12.921875 -7.015625 Z M 12.921875 -7.015625 "/></g></g></g><g fill="#054937" fill-opacity="1"><g transform="translate(327.9898, 108.79035)"><g><path d="M 4.28125 -18.875 L 4.28125 0 L 1.96875 0 L 1.96875 -18.875 Z M 4.28125 -18.875 "/></g></g></g><g fill="#054937" fill-opacity="1"><g transform="translate(332.527204, 108.79035)"><g><path d="M 14.71875 -7.515625 C 14.71875 -7.078125 14.691406 -6.613281 14.640625 -6.125 L 3.46875 -6.125 C 3.550781 -4.738281 4.019531 -3.660156 4.875 -2.890625 C 5.738281 -2.117188 6.78125 -1.734375 8 -1.734375 C 9.007812 -1.734375 9.847656 -1.96875 10.515625 -2.4375 C 11.191406 -2.90625 11.664062 -3.53125 11.9375 -4.3125 L 14.4375 -4.3125 C 14.0625 -2.96875 13.3125 -1.875 12.1875 -1.03125 C 11.0625 -0.1875 9.664062 0.234375 8 0.234375 C 6.675781 0.234375 5.488281 -0.0625 4.4375 -0.65625 C 3.394531 -1.257812 2.578125 -2.109375 1.984375 -3.203125 C 1.390625 -4.296875 1.09375 -5.566406 1.09375 -7.015625 C 1.09375 -8.460938 1.378906 -9.726562 1.953125 -10.8125 C 2.535156 -11.894531 3.347656 -12.726562 4.390625 -13.3125 C 5.441406 -13.90625 6.644531 -14.203125 8 -14.203125 C 9.332031 -14.203125 10.507812 -13.910156 11.53125 -13.328125 C 12.550781 -12.753906 13.335938 -11.960938 13.890625 -10.953125 C 14.441406 -9.941406 14.71875 -8.796875 14.71875 -7.515625 Z M 12.3125 -8 C 12.3125 -8.882812 12.113281 -9.644531 11.71875 -10.28125 C 11.332031 -10.925781 10.800781 -11.410156 10.125 -11.734375 C 9.457031 -12.066406 8.71875 -12.234375 7.90625 -12.234375 C 6.726562 -12.234375 5.726562 -11.859375 4.90625 -11.109375 C 4.082031 -10.367188 3.613281 -9.332031 3.5 -8 Z M 12.3125 -8 "/></g></g></g><g fill="#054937" fill-opacity="1"><g transform="translate(346.599537, 108.79035)"><g/></g></g><g fill="#054937" fill-opacity="1"><g transform="translate(351.672317, 108.79035)"><g><path d="M 4.796875 -12.0625 L 4.796875 -3.828125 C 4.796875 -3.148438 4.9375 -2.671875 5.21875 -2.390625 C 5.507812 -2.109375 6.015625 -1.96875 6.734375 -1.96875 L 8.4375 -1.96875 L 8.4375 0 L 6.34375 0 C 5.050781 0 4.082031 -0.296875 3.4375 -0.890625 C 2.789062 -1.484375 2.46875 -2.460938 2.46875 -3.828125 L 2.46875 -12.0625 L 0.65625 -12.0625 L 0.65625 -13.96875 L 2.46875 -13.96875 L 2.46875 -17.5 L 4.796875 -17.5 L 4.796875 -13.96875 L 8.4375 -13.96875 L 8.4375 -12.0625 Z M 4.796875 -12.0625 "/></g></g></g><g fill="#054937" fill-opacity="1"><g transform="translate(359.218065, 108.79035)"><g><path d="M 14.71875 -7.515625 C 14.71875 -7.078125 14.691406 -6.613281 14.640625 -6.125 L 3.46875 -6.125 C 3.550781 -4.738281 4.019531 -3.660156 4.875 -2.890625 C 5.738281 -2.117188 6.78125 -1.734375 8 -1.734375 C 9.007812 -1.734375 9.847656 -1.96875 10.515625 -2.4375 C 11.191406 -2.90625 11.664062 -3.53125 11.9375 -4.3125 L 14.4375 -4.3125 C 14.0625 -2.96875 13.3125 -1.875 12.1875 -1.03125 C 11.0625 -0.1875 9.664062 0.234375 8 0.234375 C 6.675781 0.234375 5.488281 -0.0625 4.4375 -0.65625 C 3.394531 -1.257812 2.578125 -2.109375 1.984375 -3.203125 C 1.390625 -4.296875 1.09375 -5.566406 1.09375 -7.015625 C 1.09375 -8.460938 1.378906 -9.726562 1.953125 -10.8125 C 2.535156 -11.894531 3.347656 -12.726562 4.390625 -13.3125 C 5.441406 -13.90625 6.644531 -14.203125 8 -14.203125 C 9.332031 -14.203125 10.507812 -13.910156 11.53125 -13.328125 C 12.550781 -12.753906 13.335938 -11.960938 13.890625 -10.953125 C 14.441406 -9.941406 14.71875 -8.796875 14.71875 -7.515625 Z M 12.3125 -8 C 12.3125 -8.882812 12.113281 -9.644531 11.71875 -10.28125 C 11.332031 -10.925781 10.800781 -11.410156 10.125 -11.734375 C 9.457031 -12.066406 8.71875 -12.234375 7.90625 -12.234375 C 6.726562 -12.234375 5.726562 -11.859375 4.90625 -11.109375 C 4.082031 -10.367188 3.613281 -9.332031 3.5 -8 Z M 12.3125 -8 "/></g></g></g><g fill="#054937" fill-opacity="1"><g transform="translate(373.290366, 108.79035)"><g><path d="M 9.25 0 L 5.9375 -5.203125 L 2.75 0 L 0.328125 0 L 4.84375 -6.9375 L 0.328125 -13.96875 L 2.953125 -13.96875 L 6.265625 -8.796875 L 9.4375 -13.96875 L 11.859375 -13.96875 L 7.375 -7.0625 L 11.890625 0 Z M 9.25 0 "/></g></g></g><g fill="#054937" fill-opacity="1"><g transform="translate(383.767992, 108.79035)"><g><path d="M 4.796875 -12.0625 L 4.796875 -3.828125 C 4.796875 -3.148438 4.9375 -2.671875 5.21875 -2.390625 C 5.507812 -2.109375 6.015625 -1.96875 6.734375 -1.96875 L 8.4375 -1.96875 L 8.4375 0 L 6.34375 0 C 5.050781 0 4.082031 -0.296875 3.4375 -0.890625 C 2.789062 -1.484375 2.46875 -2.460938 2.46875 -3.828125 L 2.46875 -12.0625 L 0.65625 -12.0625 L 0.65625 -13.96875 L 2.46875 -13.96875 L 2.46875 -17.5 L 4.796875 -17.5 L 4.796875 -13.96875 L 8.4375 -13.96875 L 8.4375 -12.0625 Z M 4.796875 -12.0625 "/></g></g></g><g fill="#054937" fill-opacity="1"><g transform="translate(391.313708, 108.79035)"><g/></g></g><g fill="#054937" fill-opacity="1"><g transform="translate(396.386488, 108.79035)"><g><path d="M 1.09375 -7.03125 C 1.09375 -8.46875 1.378906 -9.722656 1.953125 -10.796875 C 2.535156 -11.878906 3.332031 -12.71875 4.34375 -13.3125 C 5.351562 -13.90625 6.476562 -14.203125 7.71875 -14.203125 C 8.945312 -14.203125 10.007812 -13.9375 10.90625 -13.40625 C 11.8125 -12.882812 12.484375 -12.222656 12.921875 -11.421875 L 12.921875 -13.96875 L 15.28125 -13.96875 L 15.28125 0 L 12.921875 0 L 12.921875 -2.59375 C 12.460938 -1.78125 11.78125 -1.101562 10.875 -0.5625 C 9.96875 -0.03125 8.910156 0.234375 7.703125 0.234375 C 6.460938 0.234375 5.335938 -0.0703125 4.328125 -0.6875 C 3.328125 -1.300781 2.535156 -2.160156 1.953125 -3.265625 C 1.378906 -4.367188 1.09375 -5.625 1.09375 -7.03125 Z M 12.921875 -7.015625 C 12.921875 -8.066406 12.707031 -8.984375 12.28125 -9.765625 C 11.863281 -10.546875 11.289062 -11.144531 10.5625 -11.5625 C 9.84375 -11.976562 9.050781 -12.1875 8.1875 -12.1875 C 7.320312 -12.1875 6.53125 -11.984375 5.8125 -11.578125 C 5.101562 -11.171875 4.535156 -10.578125 4.109375 -9.796875 C 3.679688 -9.015625 3.46875 -8.09375 3.46875 -7.03125 C 3.46875 -5.96875 3.679688 -5.039062 4.109375 -4.25 C 4.535156 -3.457031 5.101562 -2.851562 5.8125 -2.4375 C 6.53125 -2.019531 7.320312 -1.8125 8.1875 -1.8125 C 9.050781 -1.8125 9.84375 -2.019531 10.5625 -2.4375 C 11.289062 -2.851562 11.863281 -3.457031 12.28125 -4.25 C 12.707031 -5.039062 12.921875 -5.960938 12.921875 -7.015625 Z M 12.921875 -7.015625 "/></g></g></g><g fill="#054937" fill-opacity="1"><g transform="translate(411.886512, 108.79035)"><g><path d="M 20.578125 -13.96875 L 16.21875 0 L 13.828125 0 L 10.453125 -11.09375 L 7.09375 0 L 4.6875 0 L 0.3125 -13.96875 L 2.671875 -13.96875 L 5.890625 -2.25 L 9.359375 -13.96875 L 11.734375 -13.96875 L 15.125 -2.21875 L 18.28125 -13.96875 Z M 20.578125 -13.96875 "/></g></g></g><g fill="#054937" fill-opacity="1"><g transform="translate(431.057739, 108.79035)"><g><path d="M 1.09375 -7.03125 C 1.09375 -8.46875 1.378906 -9.722656 1.953125 -10.796875 C 2.535156 -11.878906 3.332031 -12.71875 4.34375 -13.3125 C 5.351562 -13.90625 6.476562 -14.203125 7.71875 -14.203125 C 8.945312 -14.203125 10.007812 -13.9375 10.90625 -13.40625 C 11.8125 -12.882812 12.484375 -12.222656 12.921875 -11.421875 L 12.921875 -13.96875 L 15.28125 -13.96875 L 15.28125 0 L 12.921875 0 L 12.921875 -2.59375 C 12.460938 -1.78125 11.78125 -1.101562 10.875 -0.5625 C 9.96875 -0.03125 8.910156 0.234375 7.703125 0.234375 C 6.460938 0.234375 5.335938 -0.0703125 4.328125 -0.6875 C 3.328125 -1.300781 2.535156 -2.160156 1.953125 -3.265625 C 1.378906 -4.367188 1.09375 -5.625 1.09375 -7.03125 Z M 12.921875 -7.015625 C 12.921875 -8.066406 12.707031 -8.984375 12.28125 -9.765625 C 11.863281 -10.546875 11.289062 -11.144531 10.5625 -11.5625 C 9.84375 -11.976562 9.050781 -12.1875 8.1875 -12.1875 C 7.320312 -12.1875 6.53125 -11.984375 5.8125 -11.578125 C 5.101562 -11.171875 4.535156 -10.578125 4.109375 -9.796875 C 3.679688 -9.015625 3.46875 -8.09375 3.46875 -7.03125 C 3.46875 -5.96875 3.679688 -5.039062 4.109375 -4.25 C 4.535156 -3.457031 5.101562 -2.851562 5.8125 -2.4375 C 6.53125 -2.019531 7.320312 -1.8125 8.1875 -1.8125 C 9.050781 -1.8125 9.84375 -2.019531 10.5625 -2.4375 C 11.289062 -2.851562 11.863281 -3.457031 12.28125 -4.25 C 12.707031 -5.039062 12.921875 -5.960938 12.921875 -7.015625 Z M 12.921875 -7.015625 "/></g></g></g><g fill="#054937" fill-opacity="1"><g transform="translate(446.557764, 108.79035)"><g><path d="M 14 -13.96875 L 5.578125 6.578125 L 3.1875 6.578125 L 5.9375 -0.15625 L 0.3125 -13.96875 L 2.875 -13.96875 L 7.265625 -2.65625 L 11.609375 -13.96875 Z M 14 -13.96875 "/></g></g></g><g fill="#054937" fill-opacity="1"><g transform="translate(459.176896, 108.79035)"><g><path d="M 2.703125 0.15625 C 2.265625 0.15625 1.890625 0.00390625 1.578125 -0.296875 C 1.273438 -0.609375 1.125 -0.984375 1.125 -1.421875 C 1.125 -1.867188 1.273438 -2.242188 1.578125 -2.546875 C 1.890625 -2.859375 2.265625 -3.015625 2.703125 -3.015625 C 3.128906 -3.015625 3.488281 -2.859375 3.78125 -2.546875 C 4.082031 -2.242188 4.234375 -1.867188 4.234375 -1.421875 C 4.234375 -0.984375 4.082031 -0.609375 3.78125 -0.296875 C 3.488281 0.00390625 3.128906 0.15625 2.703125 0.15625 Z M 2.703125 0.15625 "/></g></g></g></g></g></svg>